<?xml version="1.0" encoding="utf-8"?>
<!-- Generator: Adobe Illustrator 25.1.0, SVG Export Plug-In . SVG Version: 6.00 Build 0)  -->
<svg version="1.1" id="Capa_1" xmlns="http://www.w3.org/2000/svg" xmlns:xlink="http://www.w3.org/1999/xlink" x="0px" y="0px"
	 viewBox="0 0 1920 730.3" style="enable-background:new 0 0 1920 730.3;" xml:space="preserve">
<style type="text/css">
	.st0{fill:#CCCCCC;}
	.st1{fill:#FFFFFF;}
	.st2{fill:#B8B7BC;}
	.st3{fill:#C5C5CA;}
	.st4{fill:#D2D2D6;}
	.st5{fill:#C4C4C8;}
	.st6{clip-path:url(#SVGID_2_);}
	.st7{fill:url(#path148_2_);}
	.st8{clip-path:url(#SVGID_4_);}
	.st9{fill:url(#path216_2_);}
	.st10{clip-path:url(#SVGID_6_);}
	.st11{fill:url(#path578_2_);}
	.st12{clip-path:url(#SVGID_8_);}
	.st13{fill:url(#path964_2_);}
	.st14{clip-path:url(#SVGID_10_);}
	.st15{fill:url(#path1064_2_);}
	.st16{clip-path:url(#SVGID_12_);}
	.st17{fill:url(#path1182_2_);}
	.st18{clip-path:url(#SVGID_14_);}
	.st19{fill:url(#path1244_3_);}
	.st20{fill:#E4E3E5;}
	.st21{opacity:0.43;}
	.st22{fill:url(#path1282_2_);}
	.st23{fill:#FBFBF8;}
	.st24{fill:url(#path618-8_2_);}
	.st25{clip-path:url(#SVGID_16_);}
	.st26{fill:url(#path702_2_);}
	.st27{clip-path:url(#SVGID_18_);}
	.st28{fill:url(#path792_2_);}
	.st29{clip-path:url(#SVGID_20_);}
	.st30{fill:url(#path864_2_);}
	.st31{clip-path:url(#SVGID_22_);}
	.st32{fill:url(#path1120_2_);}
	.st33{fill:url(#path1324_2_);}
	.st34{fill:url(#path1346_2_);}
	.st35{fill:url(#path1368_2_);}
	.st36{fill:#F2F0F0;}
	.st37{fill:url(#path1390_2_);}
	.st38{fill:url(#path1244_4_);}
</style>
<polygon class="st0" points="270.7,91.3 63.8,91.3 63.8,47.9 292.2,47.9 328.5,83.5 290,105.3 "/>
<polygon class="st0" points="489.2,127.2 328.5,127.2 290,105.3 328.5,83.5 510.7,83.5 576,167.8 539.2,189.7 "/>
<polygon class="st0" points="961.3,388.7 818.9,388.7 781,366.8 818.9,345 961.3,345 "/>
<polygon class="st0" points="726.8,211.5 576,211.5 539.2,189.7 576,167.8 752.1,167.8 818.9,345 781,366.8 "/>
<polygon class="st0" points="270.7,119.3 63.8,119.3 63.8,162.7 292.2,162.7 328.5,127.2 290,105.3 "/>
<polygon class="st0" points="270.7,288 63.8,288 63.8,331.4 292.2,331.4 328.5,295.9 290,274 "/>
<polygon class="st0" points="489.2,252.2 328.5,252.2 290,274 328.5,295.9 510.7,295.9 576,211.5 539.2,189.7 "/>
<polygon class="st0" points="270.7,260 63.8,260 63.8,216.6 292.2,216.6 328.5,252.1 290,274 "/>
<polygon class="st0" points="270.7,642.3 63.8,642.3 63.8,685.7 292.2,685.7 328.5,650.1 290,628.3 "/>
<polygon class="st0" points="489.2,606.4 328.5,606.4 290,628.3 328.5,650.1 510.7,650.1 576,565.8 539.2,543.9 "/>
<polygon class="st0" points="726.8,522.1 576,522.1 539.2,543.9 576,565.8 752.1,565.8 818.9,388.7 781,366.8 "/>
<polygon class="st0" points="270.7,614.3 63.8,614.3 63.8,570.9 292.2,570.9 328.5,606.4 290,628.3 "/>
<polygon class="st0" points="270.7,445.6 63.8,445.6 63.8,402.2 292.2,402.2 328.5,437.8 290,459.6 "/>
<polygon class="st0" points="489.2,481.5 328.5,481.5 290,459.6 328.5,437.8 510.7,437.8 576,522.1 539.2,543.9 "/>
<polygon class="st0" points="270.7,473.6 63.8,473.6 63.8,517 292.2,517 328.5,481.5 290,459.6 "/>
<polygon class="st0" points="1652,91.3 1858.8,91.3 1858.8,47.9 1630.4,47.9 1594.1,83.5 1632.6,105.3 "/>
<polygon class="st0" points="1433.5,127.2 1594.1,127.2 1632.6,105.3 1594.1,83.5 1411.9,83.5 1346.6,167.8 1383.4,189.7 "/>
<polygon class="st0" points="961.3,388.7 1103.8,388.7 1141.7,366.8 1103.8,345 961.3,345 "/>
<polygon class="st0" points="1195.8,211.5 1346.6,211.5 1383.4,189.7 1346.6,167.8 1170.6,167.8 1103.8,345 1141.7,366.8 "/>
<polygon class="st0" points="1652,119.3 1858.8,119.3 1858.8,162.7 1630.4,162.7 1594.1,127.2 1632.6,105.3 "/>
<polygon class="st0" points="1652,288 1858.8,288 1858.8,331.4 1630.4,331.4 1594.1,295.9 1632.6,274 "/>
<polygon class="st0" points="1433.5,252.2 1594.1,252.2 1632.6,274 1594.1,295.9 1411.9,295.9 1346.6,211.5 1383.4,189.7 "/>
<polygon class="st0" points="1652,260 1858.8,260 1858.8,216.6 1630.4,216.6 1594.1,252.1 1632.6,274 "/>
<polygon class="st0" points="1652,642.3 1858.8,642.3 1858.8,685.7 1630.4,685.7 1594.1,650.1 1632.6,628.3 "/>
<polygon class="st0" points="1433.5,606.4 1594.1,606.4 1632.6,628.3 1594.1,650.1 1411.9,650.1 1346.6,565.8 1383.4,543.9 "/>
<polygon class="st0" points="1195.8,522.1 1346.6,522.1 1383.4,543.9 1346.6,565.8 1170.6,565.8 1103.8,388.7 1141.7,366.8 "/>
<polygon class="st0" points="1652,614.3 1858.8,614.3 1858.8,570.9 1630.4,570.9 1594.1,606.4 1632.6,628.3 "/>
<polygon class="st0" points="1652,445.6 1858.8,445.6 1858.8,402.2 1630.4,402.2 1594.1,437.8 1632.6,459.6 "/>
<polygon class="st0" points="1433.5,481.5 1594.1,481.5 1632.6,459.6 1594.1,437.8 1411.9,437.8 1346.6,522.1 1383.4,543.9 "/>
<polygon class="st0" points="1652,473.6 1858.8,473.6 1858.8,517 1630.4,517 1594.1,481.5 1632.6,459.6 "/>
<g>
	<g>
		<g>
			<g>
				<g id="g70_1_" transform="translate(69.1677,753.046)">
					<path id="path72_1_" class="st1" d="M891.6-492c-3.8-6.4-7.3-12.4-9.6-18.1c-0.8-2.3-1.3-4.6-1.7-6.8c-1.3-6.2-0.7-9.9,1.6-15
						c0-0.1,0.1-0.2,0.2-0.3c1.1-0.7,2.7-1.3,4.5-1.4c4-0.4,10.8,0.6,13.4,7.9C902.7-517.9,896.8-502.8,891.6-492 M916.3-535.5
						c-0.2-0.5-1.2-2.3-1.5-2.9c-0.1-0.1-0.1-0.2-0.1-0.2c-4.2-7.8-4.4-6.3-7-6.7c-0.1,0-0.2,0-0.3-0.1c-3-0.7-8.2-2.7-10.7-3.6
						c-2.6-0.9-9.5,1.1-13.9,1.5c-1.1,0.1-2,0.3-2.7,0.6c-2,0.8-2.6,2.2-3.4,3.2c-0.5,0.7-0.9,0.9-1.3,0.9h0
						c-3.5,1.2-11.6,11.3-9.8,25.1c0.1,1.3,0.4,2.7,0.8,4c3.4,13.3,14.6,31.1,17.4,36.2c-2,4.7-6.4,14.3-7.8,23.4
						c0,0.3-0.4,2.4-0.4,4.1c-0.2,4.6,0.7,8.8,3.4,11.8l0.5,0.6c1.4,1.3,3,2.2,4.6,2.7c2.3,1,4.1,0.4,5.7,0.2
						c0.8,0.4,1.5,0.8,2.4,1.1c4.8,1.7,10.2,0.3,12.7-1.1c3.4-1.1,5-3.1,5.9-6.1c1-2.9,2.5-8.8-0.9-17.6c-1.5-3.8-4.6-9.7-9.3-18.4
						l0,0c3.8-7.1,13.9-24.8,15.7-30c0.1-0.3,0.2-0.5,0.3-0.8C919.5-515.5,921.5-525.8,916.3-535.5"/>
				</g>
				<g id="g78_1_" transform="translate(75.5973,760.9155)">
					<path id="path80_1_" class="st2" d="M895-511.9c1.3-6.5,4.5-11.9,0.4-20.9c-3.4-7.4-9.2-10-15.3-8.6l0,0
						c4-0.4,10.8,0.6,13.4,7.9c2.8,7.7-3.1,22.8-8.4,33.6c-0.1,0.2-0.2,0.5-0.4,0.8c2.6,4.4,4.6,8.2,7.1,12.7c0,0,3.4-5.4,4.7-7.9
						C893.8-500.8,894.2-507.9,895-511.9"/>
				</g>
				<g id="g82_1_" transform="translate(85.9583,774.6167)">
					<path id="path84_1_" class="st3" d="M900.6-546.6c0-0.2,0-0.4,0-0.7v0c0-0.1,0-0.2,0-0.3c0-1-0.1-1.8-0.2-2.5
						c-0.1-0.7-0.2-1.2-0.3-1.5c-0.5-1.5-1.7-3.2-3-4.9c-2.6-3.3-5.8-6.3-6-6.4c-0.2,0.1-0.4,0.2-0.7,0.3c-2.8,1.7-2.7,3.9-12.4-0.7
						c-1.5-0.7-3.7-0.2-5-0.2C882.8-556.2,893.5-556.4,900.6-546.6"/>
				</g>
				<g id="g86_1_" transform="translate(81.0794,756.8402)">
					<path id="path88_1_" class="st4" d="M897.9-501.6c0.4-0.6,0.7-1.1,1-1.5c0.4-0.6,0.7-1.2,1-1.8c0.2-0.3,0.3-0.6,0.4-0.9
						c4-7.9,5.1-17.3,5-23c-5-14.4-19.4-8-24.1-17c-0.1,0-3.5,0.2-3.6,0.2c0.2,0.3,0.4,0.6,0.7,0.9c1.8,2.1,6.1,6.4,10.8,7.4
						c4.6,1.1,8.5,1.7,12.4,7.6c3.9,5.8-0.2,14-3.9,22.1c-1.5,3.2-1.6,6.5-1.8,9.6c0.6-0.8,0.7-1.8,1.4-2.7
						C897.5-501,897.7-501.3,897.9-501.6"/>
				</g>
				<g id="g90_1_" transform="translate(83.4878,775.1901)">
					<path id="path92_1_" class="st5" d="M899.2-548c-3.9-5.8-7.8-6.5-12.4-7.6c-4.6-1.1-8.9-5.4-10.8-7.4c-0.2-0.3-0.5-0.6-0.7-0.9
						c-3.2,0.3-5.8,2.9-7.5,6.5c-0.6,1.3-1.1,2.6-1.5,4.1c1.3-1.1,3.5-2.2,5.9-2.4c6.1-1.4,11.9,1.3,15.3,8.6
						c4.1,9,0.9,14.4-0.4,20.9c-0.8,4-1.2,11.1,1.6,17.7c1-1.7,2.1-4.2,4.7-7.9c0.2-3.2,0.4-6.4,1.8-9.6
						C899-534,903.2-542.2,899.2-548"/>
				</g>
				<g>
					<g>
						<g>
							<g>
								<defs>
									<path id="SVGID_1_" d="M959.1,211.2c-0.1,0-0.2,0-0.2,0l0,0c-3.2,0.3-5.8,2.9-7.5,6.5l0,0c-0.6,1.3-1.1,2.6-1.5,4.1l0,0
										c0.4-0.3,0.9-0.7,1.4-1l0,0c1.1-0.7,2.7-1.3,4.5-1.4l0,0c4-0.4,10.8,0.6,13.4,7.9l0,0c2.8,7.7-3.1,22.8-8.4,33.7l0,0
										c2.6,4.4,4.1,7.2,7,11.9l0,0c0,0,12.5-19,12.6-19.3l0,0c4-7.9,6.1-17.7,5.6-25.6l0,0c-0.9-12.6-8.8-16.3-8.9-16.4l0,0
										c-0.2,0.1-0.4,0.2-0.7,0.3l0,0c-2.8,1.7-2.8,4.3-12.5-0.3l0,0c-1-0.5-2.4-0.6-3.6-0.6l0,0
										C959.9,211.2,959.4,211.2,959.1,211.2"/>
								</defs>
								<clipPath id="SVGID_2_">
									<use xlink:href="#SVGID_1_"  style="overflow:visible;"/>
								</clipPath>
								<g id="g96_1_" class="st6">
									<g id="g102_1_">
										<g id="g138_1_">
											<g id="g140_1_">
												
													<linearGradient id="path148_2_" gradientUnits="userSpaceOnUse" x1="-1457.6187" y1="-752.8438" x2="-1457.0615" y2="-752.8438" gradientTransform="matrix(10.7602 -26.1796 26.1796 10.7602 36345.8789 -29790.5547)">
													<stop  offset="0" style="stop-color:#96979A"/>
													<stop  offset="1" style="stop-color:#AEAFB3"/>
												</linearGradient>
												<path id="path148_1_" class="st7" d="M959.1,211.2c-0.1,0-0.2,0-0.2,0l0,0c-3.2,0.3-5.8,2.9-7.5,6.5l0,0
													c-0.6,1.3-1.1,2.6-1.5,4.1l0,0c0.4-0.3,0.9-0.7,1.4-1l0,0c1.1-0.7,2.7-1.3,4.5-1.4l0,0c4-0.4,10.8,0.6,13.4,7.9l0,0
													c2.8,7.7-3.1,22.8-8.4,33.7l0,0c2.6,4.4,4.1,7.2,7,11.9l0,0c0,0,12.5-19,12.6-19.3l0,0c4-7.9,6.1-17.7,5.6-25.6l0,0
													c-0.9-12.6-8.8-16.3-8.9-16.4l0,0c-0.2,0.1-0.4,0.2-0.7,0.3l0,0c-2.8,1.7-2.8,4.3-12.5-0.3l0,0c-1-0.5-2.4-0.6-3.6-0.6
													l0,0C959.9,211.2,959.4,211.2,959.1,211.2"/>
											</g>
										</g>
									</g>
								</g>
							</g>
						</g>
					</g>
				</g>
				<g>
					<g>
						<g>
							<g>
								<defs>
									<path id="SVGID_3_" d="M959.1,211.2c-0.1,0-0.2,0-0.2,0l0,0c-3.2,0.3-5.8,2.9-7.5,6.5l0,0c-0.6,1.3-1.1,2.6-1.5,4.1l0,0
										c0.4-0.3,0.9-0.7,1.4-1l0,0c1.1-0.7,2.7-1.3,4.5-1.4l0,0c4-0.4,10.8,0.6,13.4,7.9l0,0c2.8,7.7-3.1,22.8-8.4,33.7l0,0
										c2.6,4.4,4.7,8.9,7.2,13.4l0,0c0,0,13.3-23.2,13.5-23.5l0,0c4-7.9,5.7-17.3,5-23l0,0c-0.7-5.8-1.8-7.9-3.2-10.1l0,0
										c-0.5-0.8-6.1-6.1-6.2-6.1l0,0c-0.2,0.1-0.4,0.2-0.7,0.3l0,0c-2.8,1.7-2.8,4.3-12.5-0.3l0,0c-1-0.5-2.4-0.6-3.6-0.6l0,0
										C959.9,211.2,959.4,211.2,959.1,211.2"/>
								</defs>
								<clipPath id="SVGID_4_">
									<use xlink:href="#SVGID_3_"  style="overflow:visible;"/>
								</clipPath>
								<g id="g164_1_" class="st8">
									<g id="g170_1_">
										<g id="g206_1_">
											<g id="g208_1_">
												
													<radialGradient id="path216_2_" cx="-1427.7139" cy="-865.1283" r="1.2087" gradientTransform="matrix(35.2883 21.2025 -46.8897 78.0409 10760.8662 98044.3359)" gradientUnits="userSpaceOnUse">
													<stop  offset="0.2905" style="stop-color:#ABABB0"/>
													<stop  offset="0.3858" style="stop-color:#8C8D90"/>
													<stop  offset="0.4469" style="stop-color:#6E7071"/>
													<stop  offset="0.5143" style="stop-color:#8C8D90"/>
													<stop  offset="0.5922" style="stop-color:#ABABB0"/>
												</radialGradient>
												<path id="path216_1_" class="st9" d="M959.1,211.2c-0.1,0-0.2,0-0.2,0l0,0c-3.2,0.3-5.8,2.9-7.5,6.5l0,0
													c-0.6,1.3-1.1,2.6-1.5,4.1l0,0c0.4-0.3,0.9-0.7,1.4-1l0,0c1.1-0.7,2.7-1.3,4.5-1.4l0,0c4-0.4,10.8,0.6,13.4,7.9l0,0
													c2.8,7.7-3.1,22.8-8.4,33.7l0,0c2.6,4.4,4.7,8.9,7.2,13.4l0,0c0,0,13.3-23.2,13.5-23.5l0,0c4-7.9,5.7-17.3,5-23l0,0
													c-0.7-5.8-1.8-7.9-3.2-10.1l0,0c-0.5-0.8-6.1-6.1-6.2-6.1l0,0c-0.2,0.1-0.4,0.2-0.7,0.3l0,0c-2.8,1.7-2.8,4.3-12.5-0.3
													l0,0c-1-0.5-2.4-0.6-3.6-0.6l0,0C959.9,211.2,959.4,211.2,959.1,211.2"/>
											</g>
										</g>
									</g>
								</g>
							</g>
						</g>
					</g>
				</g>
				<g>
					<g>
						<g>
							<g>
								<defs>
									<path id="SVGID_5_" d="M955.6,218.4c-0.5,0-2.4,0.4-3.5,0.8l0,0l-0.6,0.9l-0.4,0.8c1.1-0.7,2.7-1.3,4.5-1.4l0,0
										c4-0.4,10.8,0.6,13.4,7.9l0,0c2.8,7.7-3.1,22.8-8.4,33.7l0,0c-0.1,0.2-0.2,0.5-0.3,0.7l0,0c0.9,0.7,1.5,1.3,1.5,1.3l0,0
										c0.2-0.2,0.2-0.5,0.4-0.7l0,0c5.4-11.2,10.7-27.2,7.8-35.2l0,0c-1.1-3.1-3-5.5-5.7-7l0,0c-0.2-0.1-1.2-0.6-1.5-0.7l0,0
										c-0.2-0.1-0.3-0.1-0.5-0.2l0,0c-0.3-0.1-1.4-0.4-1.5-0.4l0,0c-0.7-0.2-1.3-0.2-2-0.3l0,0c-0.5,0-1.1-0.1-1.5-0.1l0,0
										C956.7,218.3,956.1,218.4,955.6,218.4"/>
								</defs>
								<clipPath id="SVGID_6_">
									<use xlink:href="#SVGID_5_"  style="overflow:visible;"/>
								</clipPath>
								<g id="g528_1_" class="st10">
									<g id="g534_1_">
										<g id="g568_1_">
											<g id="g570_1_">
												
													<linearGradient id="path578_2_" gradientUnits="userSpaceOnUse" x1="-1445.3407" y1="-874.4825" x2="-1444.7834" y2="-874.4825" gradientTransform="matrix(0 41.8052 -41.8052 0 -35596.8516 60640.2344)">
													<stop  offset="0" style="stop-color:#F2F0F0"/>
													<stop  offset="1" style="stop-color:#F2F0F0"/>
												</linearGradient>
												<path id="path578_1_" class="st11" d="M955.6,218.4c-0.5,0-2.4,0.4-3.5,0.8l0,0l-0.6,0.9l-0.4,0.8
													c1.1-0.7,2.7-1.3,4.5-1.4l0,0c4-0.4,10.8,0.6,13.4,7.9l0,0c2.8,7.7-3.1,22.8-8.4,33.7l0,0c-0.1,0.2-0.2,0.5-0.3,0.7l0,0
													c0.9,0.7,1.5,1.3,1.5,1.3l0,0c0.2-0.2,0.2-0.5,0.4-0.7l0,0c5.4-11.2,10.7-27.2,7.8-35.2l0,0c-1.1-3.1-3-5.5-5.7-7l0,0
													c-0.2-0.1-1.2-0.6-1.5-0.7l0,0c-0.2-0.1-0.3-0.1-0.5-0.2l0,0c-0.3-0.1-1.4-0.4-1.5-0.4l0,0c-0.7-0.2-1.3-0.2-2-0.3l0,0
													c-0.5,0-1.1-0.1-1.5-0.1l0,0C956.7,218.3,956.1,218.4,955.6,218.4"/>
											</g>
										</g>
									</g>
								</g>
							</g>
						</g>
					</g>
				</g>
				<g>
					<g>
						<g>
							<g>
								<defs>
									<path id="SVGID_7_" d="M941,214.7c-5.1,7-6.4,18.3-4.3,24.3l0,0c2.6,7.7,3.8,11.5,10.2,21.7l0,0c0.6,0.9-3.3-14.8-4.2-18.6
										l0,0c-0.8-3.5-3.2-17.8,1.8-29l0,0c0.5-1.1,1-2.2,1.6-3.2l0,0C944.1,211,942.4,212.7,941,214.7"/>
								</defs>
								<clipPath id="SVGID_8_">
									<use xlink:href="#SVGID_7_"  style="overflow:visible;"/>
								</clipPath>
								<g id="g912_1_" class="st12">
									<g id="g918_1_">
										<g id="g954_1_">
											<g id="g956_1_">
												
													<linearGradient id="path964_2_" gradientUnits="userSpaceOnUse" x1="-1449.9017" y1="-869.2223" x2="-1449.3446" y2="-869.2223" gradientTransform="matrix(-2.7788 48.1659 -48.1659 -2.7788 -44952.457 67630.25)">
													<stop  offset="0" style="stop-color:#FBFBF8"/>
													<stop  offset="1" style="stop-color:#FBFBF8"/>
												</linearGradient>
												<path id="path964_1_" class="st13" d="M941,214.7c-5.1,7-6.4,18.3-4.3,24.3l0,0c2.6,7.7,3.8,11.5,10.2,21.7l0,0
													c0.6,0.9-3.3-14.8-4.2-18.6l0,0c-0.8-3.5-3.2-17.8,1.8-29l0,0c0.5-1.1,1-2.2,1.6-3.2l0,0
													C944.1,211,942.4,212.7,941,214.7"/>
											</g>
										</g>
									</g>
								</g>
							</g>
						</g>
					</g>
				</g>
				<g>
					<g>
						<g>
							<g>
								<defs>
									<path id="SVGID_9_" d="M951.4,252.8c-0.1-0.4-0.2-0.7-0.2-0.7l0,0C951.3,252.1,951.3,252.3,951.4,252.8 M951.1,272.5
										c0.2,0.4,0.4,0.8,0.7,1.2l0,0c0.1,0.2,0.2,0.4,0.3,0.6l0,0c8.6,15.1,22.2,26.1,14.6,38.1l0,0c-0.7,1.1-1.4,2.2-2.6,3.2l0,0
										c1.4-1.1,2.5-1,3.4-0.9l0,0c1,0.2,1.9,0.3,2.9-1.1l0,0c0.3-0.4,0.7-1,1-1.8l0,0c0.2-0.4,0.3-0.9,0.5-1.5l0,0
										c0,0,4.1,5.6,8.2,1.5l0,0c1.4-4.5,1.9-11.4-4.1-18.8l0,0c-6.9-8.5-11.2-9.3-16.8-18.9l0,0c-4.4-7.5-7.1-18.5-7.7-21.3l0,0
										C952,255.9,954.4,268.3,951.1,272.5"/>
								</defs>
								<clipPath id="SVGID_10_">
									<use xlink:href="#SVGID_9_"  style="overflow:visible;"/>
								</clipPath>
								<g id="g1012_1_" class="st14">
									<g id="g1018_1_">
										<g id="g1054_1_">
											<g id="g1056_1_">
												
													<linearGradient id="path1064_2_" gradientUnits="userSpaceOnUse" x1="-1392.2533" y1="-803.7441" x2="-1391.6962" y2="-803.7441" gradientTransform="matrix(28.4186 0 0 28.4186 40516.957 23125.0898)">
													<stop  offset="0" style="stop-color:#DFDEE0"/>
													<stop  offset="1" style="stop-color:#F7F6F5"/>
												</linearGradient>
												<path id="path1064_1_" class="st15" d="M951.4,252.8c-0.1-0.4-0.2-0.7-0.2-0.7l0,0C951.3,252.1,951.3,252.3,951.4,252.8
													 M951.1,272.5c0.2,0.4,0.4,0.8,0.7,1.2l0,0c0.1,0.2,0.2,0.4,0.3,0.6l0,0c8.6,15.1,22.2,26.1,14.6,38.1l0,0
													c-0.7,1.1-1.4,2.2-2.6,3.2l0,0c1.4-1.1,2.5-1,3.4-0.9l0,0c1,0.2,1.9,0.3,2.9-1.1l0,0c0.3-0.4,0.7-1,1-1.8l0,0
													c0.2-0.4,0.3-0.9,0.5-1.5l0,0c0,0,4.1,5.6,8.2,1.5l0,0c1.4-4.5,1.9-11.4-4.1-18.8l0,0c-6.9-8.5-11.2-9.3-16.8-18.9l0,0
													c-4.4-7.5-7.1-18.5-7.7-21.3l0,0C952,255.9,954.4,268.3,951.1,272.5"/>
											</g>
										</g>
									</g>
								</g>
							</g>
						</g>
					</g>
				</g>
				<g>
					<g>
						<g>
							<g>
								<defs>
									<path id="SVGID_11_" d="M963.3,203.8c-3.2,0-8.3,1.4-11.9,1.8l0,0c-1.1,0.1-2,0.3-2.7,0.6l0,0c-2,0.8-2.6,2.2-3.4,3.2l0,0
										c-0.5,0.7-0.9,0.9-1.3,0.9l0,0h0l0,0c-3.5,1.2-11.6,11.3-9.8,25.1l0,0c0.1,1.3,0.4,2.7,0.8,4l0,0
										c3.4,13.3,14.6,31.1,17.4,36.2l0,0c-2,4.7-6.4,14.3-7.8,23.4l0,0c0,0.3-0.4,2.4-0.4,4.1l0,0c-0.2,4.6,0.7,8.8,3.4,11.8l0,0
										c0,0,0.5,0.6,0.5,0.6l0,0c1.4,1.3,3,2.2,4.6,2.7l0,0l0,0c2.3,1,4.1,0.4,5.7,0.2l0,0c0.8,0.4,1.5,0.8,2.4,1.1l0,0
										c4.8,1.7,10.2,0.3,12.7-1.1l0,0c3.4-1.1,5-3.1,5.9-6.1l0,0c1-2.9,2.5-8.8-0.9-17.6l0,0c-1.5-3.8-4.6-9.7-9.3-18.4l0,0l0,0
										c3.7-7.1,13.9-24.8,15.7-30l0,0c0.1-0.3,0.2-0.5,0.3-0.8l0,0c3-7.8,5.1-18.2-0.2-27.8l0,0c-0.2-0.5-1.2-2.3-1.5-2.9l0,0
										c-0.1-0.1-0.1-0.2-0.1-0.2l0,0c-4.2-7.8-4.4-6.3-7-6.7l0,0c-0.1,0-0.2,0-0.3-0.1l0,0c-3-0.7-8.2-2.6-10.7-3.6l0,0
										c-0.4-0.2-1-0.2-1.7-0.2l0,0L963.3,203.8L963.3,203.8L963.3,203.8z M966.6,271.9c-0.2-0.3-0.3-0.5-0.4-0.8l0,0
										c-5.8-10.4-12.1-19.6-15.5-28.1l0,0c-0.8-2.3-1.3-4.6-1.7-6.8l0,0c-1.3-6.2-0.7-9.9,1.6-15l0,0c2.3-4.9,9.3-11,13.1-9.1
										l0,0c4.3,2,6.6,2.5,8.2,2.4l0,0c1.5-0.2,2.2-1,3.2-1.8l0,0c0.2-0.2,0.7-0.5,0.8-0.6l0,0c2.3,1.8,3.9,3.9,5.3,6l0,0
										c11.7,17.7-7.6,44.8-13.9,54.9l0,0C966.9,272.3,966.6,271.9,966.6,271.9 M952.2,312.6c-0.9-0.1-1.7-0.4-2.6-1.1l0,0
										c-1.2-0.8-2-2-2.5-3.4l0,0c-1.4-4.1-1.1-12.2,6.2-30.6l0,0c0.8,1.7,1.5,3.2,1.8,3.9l0,0c4.2,8.5,5.2,16.4,5.2,21.1l0,0
										c-0.4,5.9-3.3,9.5-6.5,10.1l0,0c-0.4,0-0.7,0.1-1,0.1l0,0C952.6,312.7,952.4,312.6,952.2,312.6"/>
								</defs>
								<clipPath id="SVGID_12_">
									<use xlink:href="#SVGID_11_"  style="overflow:visible;"/>
								</clipPath>
								<g id="g1124_1_" class="st16">
									<g id="g1130_1_">
										<g id="g1170_1_">
											<g id="g1172-6_1_">
												
													<linearGradient id="path1182_2_" gradientUnits="userSpaceOnUse" x1="-1454.9976" y1="-847.5021" x2="-1454.4404" y2="-847.5021" gradientTransform="matrix(0 96.7449 -96.7449 0 -81030.3984 140977.2969)">
													<stop  offset="0" style="stop-color:#DFDEE0"/>
													<stop  offset="0.5124" style="stop-color:#FBFBF8"/>
													<stop  offset="1" style="stop-color:#EFEEEF"/>
												</linearGradient>
												<path id="path1182_1_" class="st17" d="M963.3,203.8c-3.2,0-8.3,1.4-11.9,1.8l0,0c-1.1,0.1-2,0.3-2.7,0.6l0,0
													c-2,0.8-2.6,2.2-3.4,3.2l0,0c-0.5,0.7-0.9,0.9-1.3,0.9l0,0h0l0,0c-3.5,1.2-11.6,11.3-9.8,25.1l0,0
													c0.1,1.3,0.4,2.7,0.8,4l0,0c3.4,13.3,14.6,31.1,17.4,36.2l0,0c-2,4.7-6.4,14.3-7.8,23.4l0,0c0,0.3-0.4,2.4-0.4,4.1l0,0
													c-0.2,4.6,0.7,8.8,3.4,11.8l0,0c0,0,0.5,0.6,0.5,0.6l0,0c1.4,1.3,3,2.2,4.6,2.7l0,0l0,0c2.3,1,4.1,0.4,5.7,0.2l0,0
													c0.8,0.4,1.5,0.8,2.4,1.1l0,0c4.8,1.7,10.2,0.3,12.7-1.1l0,0c3.4-1.1,5-3.1,5.9-6.1l0,0c1-2.9,2.5-8.8-0.9-17.6l0,0
													c-1.5-3.8-4.6-9.7-9.3-18.4l0,0l0,0c3.7-7.1,13.9-24.8,15.7-30l0,0c0.1-0.3,0.2-0.5,0.3-0.8l0,0
													c3-7.8,5.1-18.2-0.2-27.8l0,0c-0.2-0.5-1.2-2.3-1.5-2.9l0,0c-0.1-0.1-0.1-0.2-0.1-0.2l0,0c-4.2-7.8-4.4-6.3-7-6.7l0,0
													c-0.1,0-0.2,0-0.3-0.1l0,0c-3-0.7-8.2-2.6-10.7-3.6l0,0c-0.4-0.2-1-0.2-1.7-0.2l0,0L963.3,203.8L963.3,203.8
													L963.3,203.8z M966.6,271.9c-0.2-0.3-0.3-0.5-0.4-0.8l0,0c-5.8-10.4-12.1-19.6-15.5-28.1l0,0c-0.8-2.3-1.3-4.6-1.7-6.8
													l0,0c-1.3-6.2-0.7-9.9,1.6-15l0,0c2.3-4.9,9.3-11,13.1-9.1l0,0c4.3,2,6.6,2.5,8.2,2.4l0,0c1.5-0.2,2.2-1,3.2-1.8l0,0
													c0.2-0.2,0.7-0.5,0.8-0.6l0,0c2.3,1.8,3.9,3.9,5.3,6l0,0c11.7,17.7-7.6,44.8-13.9,54.9l0,0
													C966.9,272.3,966.6,271.9,966.6,271.9 M952.2,312.6c-0.9-0.1-1.7-0.4-2.6-1.1l0,0c-1.2-0.8-2-2-2.5-3.4l0,0
													c-1.4-4.1-1.1-12.2,6.2-30.6l0,0c0.8,1.7,1.5,3.2,1.8,3.9l0,0c4.2,8.5,5.2,16.4,5.2,21.1l0,0c-0.4,5.9-3.3,9.5-6.5,10.1
													l0,0c-0.4,0-0.7,0.1-1,0.1l0,0C952.6,312.7,952.4,312.6,952.2,312.6"/>
											</g>
										</g>
									</g>
								</g>
							</g>
						</g>
					</g>
				</g>
				<g>
					<g>
						<g>
							<g>
								<defs>
									<path id="SVGID_13_" d="M963.4,203.8c-3.2,0-8.4,1.4-12.1,1.8l0,0c-1.1,0.1-2,0.3-2.7,0.6l0,0c-2,0.8-2.6,2.2-3.4,3.2l0,0
										c-0.5,0.7-0.9,0.9-1.3,0.9l0,0h0l0,0c-3.5,1.2-11.6,11.3-9.8,25.1l0,0c0.1,1.3,0.4,2.7,0.8,4l0,0
										c3.4,13.3,14.6,31.1,17.4,36.2l0,0c-2,4.7-6.4,14.3-7.8,23.4l0,0c0,0.3-0.4,2.4-0.4,4.1l0,0c-0.2,4.6,0.7,8.8,3.4,11.8l0,0
										c0,0,0.5,0.6,0.5,0.6l0,0c1.4,1.3,3,2.2,4.6,2.7l0,0l0,0c2.3,1,4.1,0.4,5.7,0.2l0,0c0.8,0.4,1.5,0.8,2.4,1.1l0,0
										c1.6,0.6,3.3,0.8,5,0.8l0,0c3.2,0,6.1-0.9,7.8-1.8l0,0c3.4-1.1,5-3.1,5.9-6.1l0,0c1-2.9,2.5-8.8-0.9-17.6l0,0
										c-1.5-3.8-4.6-9.7-9.3-18.4l0,0l0,0c3.8-7.1,13.9-24.8,15.7-30l0,0c0.1-0.3,0.2-0.5,0.3-0.8l0,0c3-7.8,5.1-18.2-0.2-27.8
										l0,0c-0.2-0.5-1.2-2.3-1.5-2.9l0,0c-0.1-0.1-0.1-0.2-0.1-0.2l0,0c-4.2-7.8-4.4-6.3-7-6.7l0,0c-0.1,0-0.2,0-0.3-0.1l0,0
										c-3-0.7-8.2-2.6-10.7-3.6l0,0C964.8,203.9,964.2,203.8,963.4,203.8L963.4,203.8L963.4,203.8z M966.6,271.9
										c-0.2-0.3-0.3-0.5-0.4-0.8l0,0c-5.8-10.4-12.1-19.6-15.5-28.1l0,0c-0.8-2.3-1.3-4.6-1.7-6.8l0,0c-1.3-6.2-0.7-9.9,1.6-15
										l0,0c2.3-4.9,9.3-11,13.1-9.1l0,0c4.3,2,6.6,2.5,8.2,2.4l0,0c1.5-0.2,2.2-1,3.2-1.8l0,0c0.2-0.2,0.7-0.5,0.8-0.6l0,0
										c2.3,1.8,3.9,3.9,5.3,6l0,0c11.7,17.7-7.6,44.8-13.9,54.9l0,0C966.9,272.3,966.6,271.9,966.6,271.9 M952.2,312.6
										c-0.9-0.1-1.7-0.4-2.6-1.1l0,0c-1.2-0.8-2-2-2.5-3.4l0,0c-1.4-4.1-1.1-12.2,6.2-30.6l0,0c0.8,1.7,1.5,3.2,1.8,3.9l0,0
										c4.2,8.5,5.2,16.4,5.2,21.1l0,0c-0.4,5.9-3.3,9.5-6.5,10.1l0,0c-0.4,0-0.7,0.1-1,0.1l0,0
										C952.6,312.7,952.4,312.6,952.2,312.6"/>
								</defs>
								<clipPath id="SVGID_14_">
									<use xlink:href="#SVGID_13_"  style="overflow:visible;"/>
								</clipPath>
								<g id="g1186_2_" class="st18">
									<g id="g1192_2_">
										<g id="g1232-4_2_">
											<g id="g1234-8_2_">
												
													<linearGradient id="path1244_3_" gradientUnits="userSpaceOnUse" x1="-1454.9485" y1="-847.5016" x2="-1454.3914" y2="-847.5016" gradientTransform="matrix(0 96.7448 -96.7448 0 -81030.2734 140966.4219)">
													<stop  offset="0" style="stop-color:#DFDEE0"/>
													<stop  offset="0.5124" style="stop-color:#FBFBF8"/>
													<stop  offset="1" style="stop-color:#EFEEEF"/>
												</linearGradient>
												<path id="path1244_2_" class="st19" d="M963.4,203.8c-3.2,0-8.4,1.4-12.1,1.8l0,0c-1.1,0.1-2,0.3-2.7,0.6l0,0
													c-2,0.8-2.6,2.2-3.4,3.2l0,0c-0.5,0.7-0.9,0.9-1.3,0.9l0,0h0l0,0c-3.5,1.2-11.6,11.3-9.8,25.1l0,0
													c0.1,1.3,0.4,2.7,0.8,4l0,0c3.4,13.3,14.6,31.1,17.4,36.2l0,0c-2,4.7-6.4,14.3-7.8,23.4l0,0c0,0.3-0.4,2.4-0.4,4.1l0,0
													c-0.2,4.6,0.7,8.8,3.4,11.8l0,0c0,0,0.5,0.6,0.5,0.6l0,0c1.4,1.3,3,2.2,4.6,2.7l0,0l0,0c2.3,1,4.1,0.4,5.7,0.2l0,0
													c0.8,0.4,1.5,0.8,2.4,1.1l0,0c1.6,0.6,3.3,0.8,5,0.8l0,0c3.2,0,6.1-0.9,7.8-1.8l0,0c3.4-1.1,5-3.1,5.9-6.1l0,0
													c1-2.9,2.5-8.8-0.9-17.6l0,0c-1.5-3.8-4.6-9.7-9.3-18.4l0,0l0,0c3.8-7.1,13.9-24.8,15.7-30l0,0c0.1-0.3,0.2-0.5,0.3-0.8
													l0,0c3-7.8,5.1-18.2-0.2-27.8l0,0c-0.2-0.5-1.2-2.3-1.5-2.9l0,0c-0.1-0.1-0.1-0.2-0.1-0.2l0,0c-4.2-7.8-4.4-6.3-7-6.7
													l0,0c-0.1,0-0.2,0-0.3-0.1l0,0c-3-0.7-8.2-2.6-10.7-3.6l0,0C964.8,203.9,964.2,203.8,963.4,203.8L963.4,203.8
													L963.4,203.8z M966.6,271.9c-0.2-0.3-0.3-0.5-0.4-0.8l0,0c-5.8-10.4-12.1-19.6-15.5-28.1l0,0c-0.8-2.3-1.3-4.6-1.7-6.8
													l0,0c-1.3-6.2-0.7-9.9,1.6-15l0,0c2.3-4.9,9.3-11,13.1-9.1l0,0c4.3,2,6.6,2.5,8.2,2.4l0,0c1.5-0.2,2.2-1,3.2-1.8l0,0
													c0.2-0.2,0.7-0.5,0.8-0.6l0,0c2.3,1.8,3.9,3.9,5.3,6l0,0c11.7,17.7-7.6,44.8-13.9,54.9l0,0
													C966.9,272.3,966.6,271.9,966.6,271.9 M952.2,312.6c-0.9-0.1-1.7-0.4-2.6-1.1l0,0c-1.2-0.8-2-2-2.5-3.4l0,0
													c-1.4-4.1-1.1-12.2,6.2-30.6l0,0c0.8,1.7,1.5,3.2,1.8,3.9l0,0c4.2,8.5,5.2,16.4,5.2,21.1l0,0c-0.4,5.9-3.3,9.5-6.5,10.1
													l0,0c-0.4,0-0.7,0.1-1,0.1l0,0C952.6,312.7,952.4,312.6,952.2,312.6"/>
											</g>
										</g>
									</g>
								</g>
							</g>
						</g>
					</g>
				</g>
				<g id="g1254_1_" transform="translate(70.6061,724.9276)">
					<path id="path1256-2_1_" class="st20" d="M892.3-420.7c0.1-5.4-0.9-10.7-2.6-15.7c-1.7-5.1-4.1-9.9-6.8-14.4
						c-1.4-2.3-2.8-4.6-4.1-6.9c-1.3-2.4-2.6-4.7-3.9-7.1c-2.5-4.7-4.8-9.6-6.6-14.7c1.1,2.5,2.2,4.9,3.5,7.2
						c1.2,2.4,2.5,4.7,3.9,7.1c2.6,4.7,5.4,9.3,8.2,13.9c2.8,4.6,5.1,9.6,6.7,14.7c0.8,2.6,1.4,5.2,1.7,7.9
						C892.6-426.1,892.6-423.4,892.3-420.7"/>
				</g>
				<g id="g1292-7_1_" class="st21">
					<g id="g1290-2_1_">
						<g id="g1288-2_1_">
							<g id="g1286_1_">
								<g id="g1284_1_">
									
										<linearGradient id="path1282_2_" gradientUnits="userSpaceOnUse" x1="-1481.3654" y1="-796.0897" x2="-1480.8137" y2="-796.0897" gradientTransform="matrix(-13.562 -55.7733 55.7733 -13.562 25276.3574 -93107.7578)">
										<stop  offset="0" style="stop-color:#F7F6F5"/>
										<stop  offset="0.5124" style="stop-color:#FBFBF8"/>
										<stop  offset="0.6773" style="stop-color:#FBFBF8"/>
										<stop  offset="0.901" style="stop-color:#ECEBEC"/>
										<stop  offset="1" style="stop-color:#D2D2D6"/>
									</linearGradient>
									<path id="path1282_1_" class="st22" d="M942,252.4c1.2,2.4,2.5,4.7,3.9,7l0,0c0.5,1,1.1,1.9,1.6,2.9l0,0
										c1.6,2.5,3.4,5,5.3,7.6l0,0c8.9,11.5,14.5,23.1,10.5,34.4l0,0c-0.7,2-0.4,3,0.6,3.1l0,0h0.1c2.6-0.1,8.8-6.5,8.9-16.1l0,0
										v-0.5c-0.1-6.6-3-14.7-12.1-23.3l0,0c-14-10.5-22.4-22.1-22.4-22.1l0,0C939.6,247.7,940.7,250,942,252.4"/>
								</g>
							</g>
						</g>
					</g>
				</g>
				<g id="g1300_1_" transform="translate(81.058,731.191)">
					<path id="path1302_1_" class="st23" d="M897.9-436.6c-1.5-3.8-4.6-9.7-9.3-18.4l0,0l-3.1-5c-5.8-10.4-12.1-19.6-15.5-28.1
						c-0.7-2.3-1.3-4.6-1.7-6.8c0,0,0,0,0,0v0c0.3,2.1,0.2,4.3,0.9,7.7c1.3,6.3,4.2,13.3,9.5,19.8c6.2,7.6,13.3,17,16.5,31.3
						c0.4,1.8,1.1,6,1.3,9.7c0.3,4.6-0.6,7.8-2.2,11.2c0,0,1,1.4,3.9-2.6c0.2-0.4,0.4-0.7,0.6-1.1
						C899.8-421.9,901.3-427.8,897.9-436.6"/>
				</g>
				<g id="g602_1_">
					<g id="g608_1_">
						<g id="g610_1_">
							
								<linearGradient id="path618-8_2_" gradientUnits="userSpaceOnUse" x1="-1383.453" y1="-723.543" x2="-1382.8722" y2="-723.543" gradientTransform="matrix(13.673 -8.8573 8.8573 13.673 26271.1562 -2145.0269)">
								<stop  offset="0" style="stop-color:#F7F6F5"/>
								<stop  offset="1" style="stop-color:#FBFBF8"/>
							</linearGradient>
							<path id="path618-8_1_" class="st24" d="M954.9,206.7c-0.8,0.3-1.4,0.6-1.9,0.8l0,0c-6.2,3.5-8,6.9-8.3,7.2l0,0
								c-0.8,1.1-1.6,2.1-1.7,3.6l1.1,0c1.1,0.6,3.9-1.8,7.7-4.8l2.2-1.6c0.7-0.5,2.9-2,2.9-2s4.4-3.2,6.8-2l0,0
								c0.2,0.1,0.4,0.2,0.6,0.2l0,0c-0.3-0.2-0.6-0.3-0.9-0.5l0,0c-1.7-0.9-3.5-1.5-5.4-1.5l0,0C957,206.2,956,206.4,954.9,206.7"
								/>
						</g>
					</g>
				</g>
				<g>
					<g>
						<g>
							<g>
								<defs>
									<path id="SVGID_15_" d="M960.6,205.2c-0.2,0-10.1,0.6-11.4,1l0,0c-2,0.8-2.6,2.2-3.4,3.2l0,0c-0.5,0.7-0.9,0.9-1.3,0.9l0,0
										c0.3-0.1,0.7-0.2,1.1-0.2l0,0c1.1-0.3,2.1-0.7,3.2-1.2l0,0c1-0.4,2.2-1,3.7-1.6l0,0c0.9-0.3,2.6-1,3.5-1.3l0,0
										c0.9-0.2,3.3-0.7,3.5-0.7l0,0c0.3,0,0.9-0.1,1.3-0.2l0,0C960.8,205.2,960.7,205.2,960.6,205.2"/>
								</defs>
								<clipPath id="SVGID_16_">
									<use xlink:href="#SVGID_15_"  style="overflow:visible;"/>
								</clipPath>
								<g id="g650_1_" class="st25">
									<g id="g656_1_">
										<g id="g692-2_1_">
											<g id="g694-3_1_">
												
													<linearGradient id="path702_2_" gradientUnits="userSpaceOnUse" x1="-1333.9141" y1="-780.6409" x2="-1333.3568" y2="-780.6409" gradientTransform="matrix(15.5558 0 0 15.5558 21694.6387 12351.2617)">
													<stop  offset="0" style="stop-color:#BBBBC0"/>
													<stop  offset="1" style="stop-color:#F7F6F5"/>
												</linearGradient>
												<path id="path702_1_" class="st26" d="M960.6,205.2c-0.2,0-10.1,0.6-11.4,1l0,0c-2,0.8-2.6,2.2-3.4,3.2l0,0
													c-0.5,0.7-0.9,0.9-1.3,0.9l0,0c0.3-0.1,0.7-0.2,1.1-0.2l0,0c1.1-0.3,2.1-0.7,3.2-1.2l0,0c1-0.4,2.2-1,3.7-1.6l0,0
													c0.9-0.3,2.6-1,3.5-1.3l0,0c0.9-0.2,3.3-0.7,3.5-0.7l0,0c0.3,0,0.9-0.1,1.3-0.2l0,0
													C960.8,205.2,960.7,205.2,960.6,205.2"/>
											</g>
										</g>
									</g>
								</g>
							</g>
						</g>
					</g>
				</g>
				<g>
					<g>
						<g>
							<g>
								<defs>
									<path id="SVGID_17_" d="M976.3,212.2c0,0,0.1,0,0.1-0.1l0,0c1.6-1.1,4.7-1.6,7.4,2.6l0,0l0,0c-4.1-6.9-7.8-6.2-11.7-5.6
										l0,0c-2.6,0.4-5.2,0.8-7.9-0.9l0,0C968.1,210.8,972.6,214.5,976.3,212.2"/>
								</defs>
								<clipPath id="SVGID_18_">
									<use xlink:href="#SVGID_17_"  style="overflow:visible;"/>
								</clipPath>
								<g id="g734_1_" class="st27">
									<g id="g740_1_">
										<g id="g780_1_">
											<g id="g782_1_">
												
													<linearGradient id="path792_2_" gradientUnits="userSpaceOnUse" x1="-1547.7701" y1="-814.1846" x2="-1547.213" y2="-814.1846" gradientTransform="matrix(-21.2904 -11.5512 11.5512 -21.2904 -22561.375 -34995.7617)">
													<stop  offset="0" style="stop-color:#FBFBF8"/>
													<stop  offset="0.527" style="stop-color:#FBFBF8"/>
													<stop  offset="1" style="stop-color:#BEBFC3"/>
												</linearGradient>
												<path id="path792_1_" class="st28" d="M976.3,212.2c0,0,0.1,0,0.1-0.1l0,0c1.6-1.1,4.7-1.6,7.4,2.6l0,0l0,0
													c-4.1-6.9-7.8-6.2-11.7-5.6l0,0c-2.6,0.4-5.2,0.8-7.9-0.9l0,0C968.1,210.8,972.6,214.5,976.3,212.2"/>
											</g>
										</g>
									</g>
								</g>
							</g>
						</g>
					</g>
				</g>
				<g>
					<g>
						<g>
							<g>
								<defs>
									<path id="SVGID_19_" d="M963.8,203.8c-3.2,0-8.3,1.4-11.9,1.8l0,0c-1.1,0.1-2,0.3-2.7,0.6l0,0c2.6-0.5,2.9,0,10.4-0.9l0,0
										c0,0,1-0.1,1.3-0.1l0,0c1.7-0.1,3.4,0,4.8,0.8l0,0c1.7,0.9,3.4,1.3,5,1.5l0,0c1.2,0.1,2.4,0.1,3.5,0.1l0,0
										c0.7,0,1.5,0,2.2,0l0,0c-3-0.7-8.2-2.6-10.7-3.6l0,0c-0.4-0.2-1-0.2-1.7-0.2l0,0H963.8L963.8,203.8z"/>
								</defs>
								<clipPath id="SVGID_20_">
									<use xlink:href="#SVGID_19_"  style="overflow:visible;"/>
								</clipPath>
								<g id="g812-9_1_" class="st29">
									<g id="g818-2_1_">
										<g id="g854_1_">
											<g id="g856_1_">
												
													<linearGradient id="path864_2_" gradientUnits="userSpaceOnUse" x1="-1385.5454" y1="-799.1512" x2="-1384.9883" y2="-799.1512" gradientTransform="matrix(25.9563 0 0 25.9563 36912.8281 20948.7227)">
													<stop  offset="0" style="stop-color:#D2D2D6"/>
													<stop  offset="1" style="stop-color:#F7F6F5"/>
												</linearGradient>
												<path id="path864_1_" class="st30" d="M963.8,203.8c-3.2,0-8.3,1.4-11.9,1.8l0,0c-1.1,0.1-2,0.3-2.7,0.6l0,0
													c2.6-0.5,2.9,0,10.4-0.9l0,0c0,0,1-0.1,1.3-0.1l0,0c1.7-0.1,3.4,0,4.8,0.8l0,0c1.7,0.9,3.4,1.3,5,1.5l0,0
													c1.2,0.1,2.4,0.1,3.5,0.1l0,0c0.7,0,1.5,0,2.2,0l0,0c-3-0.7-8.2-2.6-10.7-3.6l0,0c-0.4-0.2-1-0.2-1.7-0.2l0,0H963.8
													L963.8,203.8z"/>
											</g>
										</g>
									</g>
								</g>
							</g>
						</g>
					</g>
				</g>
				<g>
					<g>
						<g>
							<g>
								<defs>
									<path id="SVGID_21_" d="M943,218.2c-1.3,5.5-2,13.5-0.8,21.7l0,0c0.5,3.6,3.2,11.4,3.8,15.1l0,0
										c-1.5-12-6.8-36.7,11.5-45.4l-0.6-0.4h-0.7C951.9,210.2,944.1,218.8,943,218.2"/>
								</defs>
								<clipPath id="SVGID_22_">
									<use xlink:href="#SVGID_21_"  style="overflow:visible;"/>
								</clipPath>
								<g id="g1068_1_" class="st31">
									<g id="g1074-5_1_">
										<g id="g1110_1_">
											<g id="g1112_1_">
												
													<linearGradient id="path1120_2_" gradientUnits="userSpaceOnUse" x1="-1506.7021" y1="-718.5125" x2="-1506.126" y2="-718.5125" gradientTransform="matrix(-0.9521 -17.9949 17.9949 -0.9521 12445.3662 -27556.3965)">
													<stop  offset="0" style="stop-color:#C4C4C8"/>
													<stop  offset="1" style="stop-color:#F7F6F5"/>
												</linearGradient>
												<path id="path1120_1_" class="st32" d="M943,218.2c-1.3,5.5-2,13.5-0.8,21.7l0,0c0.5,3.6,3.2,11.4,3.8,15.1l0,0
													c-1.5-12-7.2-36.4,11.1-45.1h-0.8l-0.7,0.2C951.2,211.2,944.1,218.8,943,218.2"/>
											</g>
										</g>
									</g>
								</g>
							</g>
						</g>
					</g>
				</g>
				<g id="g1306_1_">
					<g id="g1312_1_">
						<g id="g1314_1_">
							
								<linearGradient id="path1324_2_" gradientUnits="userSpaceOnUse" x1="-1483.4348" y1="-941.2198" x2="-1482.8776" y2="-941.2198" gradientTransform="matrix(-9.1503 15.7928 -15.7928 -9.1503 -27490.9902 15032.8682)">
								<stop  offset="0" style="stop-color:#842D3D"/>
								<stop  offset="0.5347" style="stop-color:#AA2C50"/>
								<stop  offset="1" style="stop-color:#842D3D"/>
							</linearGradient>
							<path id="path1324_1_" class="st33" d="M938.7,225.3c0,2.4,1.9,4.3,4.3,4.3l0,0c2.4,0,4.3-1.9,4.3-4.3l0,0
								c0-2.4-1.9-4.3-4.3-4.3l0,0C940.6,221,938.7,222.9,938.7,225.3 M943.6,223.3c-0.4-0.2-0.7-0.6-0.7-1l0,0c0,0,0.1,0,0.1,0l0,0
								c0.7,0,1.3,0.2,1.8,0.7l0,0c-0.2,0.3-0.5,0.4-0.9,0.4l0,0C943.8,223.3,943.7,223.3,943.6,223.3 M940.1,224.2
								c0.2-0.7,0.8-1.2,1.4-1.6l0,0c0.1,0.2,0.2,0.4,0.2,0.6l0,0c0,0.6-0.5,1.1-1.1,1.1l0,0C940.4,224.3,940.2,224.2,940.1,224.2
								 M942.3,226.4l-0.6-1.1c-0.1-0.1,0-0.2,0-0.4l0,0l0.8-0.9c0.1-0.1,0.2-0.1,0.4-0.1l0,0l1.1,0.5c0.1,0,0.2,0.2,0.2,0.3l0,0
								L944,226c0,0.1-0.1,0.2-0.2,0.2l0,0l-1.2,0.2h0l0,0C942.5,226.5,942.4,226.5,942.3,226.4 M945.1,225.5c0-0.5,0.4-1,0.9-1.1
								l0,0c0.1,0.3,0.1,0.6,0.1,0.9l0,0c0,0.4-0.1,0.9-0.3,1.3l0,0C945.3,226.4,945.1,226,945.1,225.5 M940,226c0.1,0,0.2,0,0.3,0
								l0,0c0.6,0,1.1,0.5,1.1,1.1l0,0c0,0.2-0.1,0.5-0.2,0.7l0,0C940.6,227.3,940.2,226.7,940,226 M942.7,228.3
								c0.1-0.5,0.5-1,1.1-1l0,0c0.4,0,0.7,0.2,0.9,0.4l0,0c-0.5,0.3-1.1,0.5-1.7,0.5l0,0C942.9,228.3,942.8,228.3,942.7,228.3"/>
						</g>
					</g>
				</g>
				<g id="g1328_1_">
					<g id="g1334_1_">
						<g id="g1336_1_">
							
								<linearGradient id="path1346_2_" gradientUnits="userSpaceOnUse" x1="-1483.4325" y1="-941.2938" x2="-1482.8754" y2="-941.2938" gradientTransform="matrix(-9.151 15.7939 -15.7939 -9.151 -27496.0664 15032.043)">
								<stop  offset="0" style="stop-color:#842D3D"/>
								<stop  offset="0.5347" style="stop-color:#AA2C50"/>
								<stop  offset="1" style="stop-color:#842D3D"/>
							</linearGradient>
							<path id="path1346_1_" class="st34" d="M943.5,217.5l1,1.7l1.7-1l-1-1.7L943.5,217.5z"/>
						</g>
					</g>
				</g>
				<g id="g1350-7_1_">
					<g id="g1356-8_1_">
						<g id="g1358-2_1_">
							
								<linearGradient id="path1368_2_" gradientUnits="userSpaceOnUse" x1="-1483.4335" y1="-941.0709" x2="-1482.8762" y2="-941.0709" gradientTransform="matrix(-9.1501 15.7924 -15.7924 -9.1501 -27485.0801 15035.459)">
								<stop  offset="0" style="stop-color:#842D3D"/>
								<stop  offset="0.5347" style="stop-color:#AA2C50"/>
								<stop  offset="1" style="stop-color:#842D3D"/>
							</linearGradient>
							<path id="path1368_1_" class="st35" d="M941,232.9l1.4,1.4l1.4-1.4l-1.4-1.4L941,232.9z"/>
						</g>
					</g>
				</g>
			</g>
			<g id="g1296-0_1_" transform="translate(64.6391,742.2646)">
				<path id="path1298_1_" class="st36" d="M889.2-464.6c-0.3-0.7-0.6-1.3-1-2c-2,4.7-6.4,14.3-7.8,23.4c0,0.3-0.4,2.4-0.4,4.1
					c0,0.3,0.1,0.6,0.1,0.9c1.2,5.3,3.1,6.1,3.9,6.3c-0.5-0.6-0.9-1.3-1.1-2.1C881.6-438.1,881.9-446.2,889.2-464.6"/>
			</g>
			<g id="g1372_1_">
				<g id="g1378_1_">
					<g id="g1380_1_">
						
							<linearGradient id="path1390_2_" gradientUnits="userSpaceOnUse" x1="-1459.9846" y1="-803.6884" x2="-1459.4275" y2="-803.6884" gradientTransform="matrix(34.5275 -82.0027 82.0027 34.5275 117264.6953 -91621.3984)">
							<stop  offset="0" style="stop-color:#842D3D"/>
							<stop  offset="0.5347" style="stop-color:#AA2C50"/>
							<stop  offset="1" style="stop-color:#842D3D"/>
						</linearGradient>
						<path id="path1390_1_" class="st37" d="M969.9,305c-0.2,0.2-0.2,0.5-0.3,1l0,0c0,0.4,0,0.8,0,1.2l0,0
							c-0.2-0.2-0.5-0.2-0.7-0.1l0,0c0,0.2,0.1,0.3,0.1,0.5l0,0c0,0.1,0,0.3,0,0.4l0,0c-0.3,0.2-0.7,0.5-0.7,1.1l0,0
							c0,0.1,0,0.2,0,0.2l0,0c-0.1-0.4-0.3-0.7-0.4-1l0,0c-0.1-0.3-0.2-0.5-0.4-0.7l0,0c0,0-0.1,0-0.2-0.1l0,0c0,0.1,0,0.2-0.1,0.3
							l0,0c0,0,0,0.1,0,0.2l0,0c-0.1-0.1-0.2-0.2-0.3-0.3l0,0c-0.1,0-0.2-0.1-0.2-0.1l0,0c-0.2,0-0.2,0-0.2,0.3l0,0
							c0,0.1,0,0.2,0,0.3l0,0c-0.4-0.2-0.7,0.2-0.7,0.2l0,0c0.1,0.1,0.2,0.1,0.2,0.3l0,0c0,0.1,0,0.3-0.1,0.5l0,0
							c-0.1,0.3,0,0.9,0.2,1.1l0,0c0.2,0.2,0.5,0.1,0.7-0.1l0,0c0.2-0.2,0.3-1,0.2-1.2l0,0c-0.1-0.1-0.2-0.1-0.3,0l0,0
							c0,0.1,0.1,0.2,0.1,0.3l0,0c0,0.1-0.1,0.3-0.2,0.4l0,0c-0.1,0.1-0.2,0.1-0.4,0l0,0c-0.2-0.2-0.2-0.5,0-0.8l0,0
							c0-0.1,0.2-0.2,0.2-0.3l0,0c0.2-0.2,0.5-0.2,0.7-0.1l0,0c0.2,0.1,0.3,0.4,0.3,0.7l0,0c0,0.6-0.2,1.5-0.2,2.1l0,0
							c0,0.5,0.4,0.7,0.9,0.9l0,0c0.2,0,0.7,0.1,0.8,0.1l0,0c0.5,0.2,1,0.2,1.3-0.3l0,0c0.3-0.5,0.4-1.5,0.8-1.9l0,0
							c0.2-0.3,0.4-0.4,0.6-0.5l0,0c0.2,0,0.4,0.1,0.6,0.4l0,0c0,0.1,0,0.2,0,0.4l0,0c0,0.3-0.2,0.7-0.4,0.7l0,0
							c-0.1,0-0.2,0-0.3-0.2l0,0c0-0.1,0-0.3,0-0.4l0,0c0-0.1,0.2-0.1,0.2-0.2l0,0c-0.1-0.2-0.2-0.2-0.3-0.1l0,0
							c-0.2,0.1-0.5,0.8-0.4,1.1l0,0c0.1,0.3,0.4,0.4,0.6,0.4l0,0c0.3-0.1,0.6-0.5,0.7-0.9l0,0c0-0.2,0.1-0.4,0.1-0.5l0,0
							c0.1-0.1,0.2-0.1,0.3-0.2l0,0c0,0,0,0,0,0l0,0c-0.1-0.4-0.3-0.3-0.5-0.4l0,0c0-0.1,0.1-0.2,0.1-0.3l0,0
							c0.1-0.2,0.1-0.3-0.1-0.4l0,0c-0.1,0-0.2,0-0.3,0l0,0c-0.1,0-0.2,0.1-0.4,0.1l0,0c0-0.1,0-0.1,0-0.2l0,0c0-0.1,0-0.2,0-0.3
							l0,0c0,0,0,0-0.1,0l0,0c0,0-0.1,0-0.1,0l0,0c-0.2,0-0.3,0.2-0.6,0.3l0,0c-0.2,0.1-0.5,0.5-0.8,0.9l0,0c0-0.1,0.1-0.2,0.1-0.4
							l0,0c0.2-0.4,0.1-0.7,0-0.9l0,0l-0.2-0.3c0,0,0-0.1,0-0.2l0,0c0.1-0.3,0.2-0.5,0.3-0.7l0,0c0-0.2-0.4-0.3-0.6-0.2l0,0
							c0.1-0.4,0.2-0.8,0.2-1.2l0,0c0-0.4-0.1-0.7-0.2-0.9l0,0c0,0,0,0-0.1,0l0,0C969.9,304.9,969.9,305,969.9,305 M962.1,310
							c-0.1-0.2-0.1-0.5-0.2-0.7l0,0c-0.3,0.1-0.5,0.3-0.7,0.6l0,0c-0.1,0.2-0.2,0.5-0.3,0.8l0,0c-0.1-0.1-0.2-0.2-0.4-0.3l0,0
							c-0.4,0.5-0.5,1-0.1,1.6l0,0c0.3,0.5,0.7,0.9,1,1.4l0,0c0.4,0.5,0.8,1,0.8,1.7l0,0c0,0.6-0.3,1.1-0.8,1.6l0,0
							c-0.4,0.4-0.9,0.5-1.5,0.5l0,0c0,0-0.1,0.2-0.1,0.2l0,0c0,0.2,0.5,0.1,0.7,0.1l0,0c1.6-0.4,2.7-1.7,2.2-2.9l0,0
							c-0.2-0.5-0.8-1.3-1.1-1.8l0,0c-0.2-0.4-0.4-0.8-0.3-1.3l0,0c0.1-0.6,0.7-1.1,1.3-1l0,0c0.4,0.1,0.7,0.4,0.7,0.8l0,0
							c0,0.2-0.2,0.6-0.4,0.7l0,0c-0.2,0.1-0.3,0.1-0.4,0l0,0c-0.1-0.1-0.1-0.2,0-0.4l0,0c0,0,0,0,0-0.1l0,0c-0.2,0-0.6,0.4-0.5,0.7
							l0,0c0.1,0.5,1.1,0.9,1.6,0.5l0,0c0.4-0.3,0.7-1,0.5-1.5l0,0c-0.2-0.5-0.4-0.8-0.9-1l0,0c0,0-0.1,0-0.1-0.1l0,0
							c0.1-0.2,0.2-0.5,0.3-0.7l0,0c0,0-0.1,0-0.1,0l0,0C962.7,309.2,962.3,309.6,962.1,310 M965.8,311.9c-0.3,0.1-0.7,0.5-0.8,0.8
							l0,0c0.2,0,0.3-0.1,0.4-0.1l0,0c0.3,0,0.5,0.1,0.5,0.4l0,0c0,0.2-0.1,0.7-0.4,0.9l0,0c-0.4,0.3-0.8,0.6-1.2,0.9l0,0
							c-0.4,0.3-0.7,0.7-0.7,1.2l0,0c0,0.6,0.6,1.1,0.7,1.1l0,0c-0.8,1-1.7,1.8-2.7,2.6l0,0c0.3,0.1,0.5,0.2,0.8,0.2l0,0
							c0.9-0.7,1.7-1.5,2.5-2.4l0,0c0.7,0.3,1.5,0.4,2.2-0.1l0,0c0.4-0.3,0.6-0.7,0.8-1.1l0,0c0.1-0.3,0.2-0.7,0.3-1l0,0
							c0.2-0.4,0.5-0.8,0.8-0.9l0,0c0.3-0.1,0.5,0,0.5,0.4l0,0c0,0,0,0.1,0,0.2l0,0c0.2-0.3,0.3-0.5,0.4-0.8l0,0
							c0.1-0.5,0-0.8-0.2-1l0,0c-0.2-0.2-0.7-0.2-1.1,0.1l0,0c-0.2,0.1-0.4,0.4-0.5,0.6l0,0c-0.2,0.3-0.4,0.6-0.5,0.9l0,0
							c-0.5,0.7-0.9,1.1-1.1,1.3l0,0c0.3-0.4,0.5-0.9,0.7-1.4l0,0c0.2-0.4,0.3-0.9,0.4-1.3l0,0c0,0,0-0.1,0-0.2l0,0
							c-0.1,0.1-0.1,0.1-0.2,0.1l0,0c-0.6,0.7-1.2,1.3-1.8,1.9l0,0c-0.1,0-0.1,0.1-0.2,0.2l0,0c0-0.3,0.3-0.8,0.5-1.1l0,0
							c0.1-0.1,0.2-0.2,0.3-0.3l0,0c0.3-0.3,0.5-0.7,0.7-1.1l0,0c0.2-0.5,0-0.8-0.2-1l0,0c-0.2-0.1-0.3-0.2-0.5-0.2l0,0
							C966.2,311.8,966,311.9,965.8,311.9 M959.3,313.1c-0.3,0-0.9,0-0.9,0l0,0c1.6,0.8,2,1.8,2.3,3.2l0,0c0.3-0.2,0.7-1.2,0.6-1.7
							l0,0c-0.1-0.7-0.5-1.3-1.1-1.8l0,0c0,0.1,0,0.2,0,0.2l0,0c-0.4-0.2-0.6-0.5-1.1-0.6l0,0C959.1,312.7,959.2,312.9,959.3,313.1
							 M973.4,315c0,0-0.1,0-0.1,0l0,0c-0.3-0.2-1.4-0.4-2,0.2l0,0c-0.4,0.4-0.9,1.5-0.2,2l0,0c0.2,0.1,0.3,0.2,0.6,0.1l0,0
							c0.2-0.1,0.4-0.3,0.5-0.6l0,0c0,0,0-0.1,0-0.2l0,0c0,0-0.1,0-0.1,0.1l0,0c-0.2,0.2-0.4,0.3-0.5,0.2l0,0
							c-0.1-0.1-0.2-0.5-0.1-0.7l0,0c0.4-0.6,1-0.9,1.3-0.7l0,0c0.2,0.2,0.3,0.5,0.1,1l0,0c-0.2,0.6-0.7,1.1-1.1,1.3l0,0
							c-0.4,0.2-0.9,0.2-1.3,0.3l0,0c-0.3,0-0.5,0-0.8-0.1l0,0c-0.4-0.1-0.7-0.2-1.1,0l0,0c-1.1,0.3-2.4,1.3-3.1,2.3l0,0
							c0.2,0,0.3,0,0.4,0l0,0c0.2-0.2,0.4-0.5,0.7-0.7l0,0c0.9-0.7,1.7-1,2.5-0.9l0,0c0.6,0,1.2,0.2,1.7,0.2l0,0c0.4,0,0.7,0,1.1,0
							l0,0c0.5-0.1,1-0.5,1.4-1.2l0,0c-0.1,0-0.3,0-0.4-0.1l0,0c0.6-0.5,1.1-1.2,1.2-2l0,0c-0.2,0.2-0.5,0.3-0.7,0.4l0,0
							c0.2-0.3,0.3-0.7,0.4-1l0,0c0.1-0.3,0.1-0.6,0-0.8l0,0C973.7,314.5,973.5,314.7,973.4,315 M961.5,317.4
							c-0.3,0.3-0.3,0.7,0,1.1l0,0c0.1,0.1,0.2,0.2,0.3,0.3l0,0c0.3-0.2,0.6-0.5,0.9-0.7l0,0c0.7-0.5,0.8-1.1,0.7-1.7l0,0
							c0-0.2-0.1-0.3-0.1-0.4l0,0C962.6,316.5,962,316.9,961.5,317.4 M958.6,317.6c-0.3,0-0.6,0-0.9-0.1l0,0c0,0,0.3,0.3,0.5,0.5
							l0,0c-0.1,0.1-0.3,0.2-0.4,0.3l0,0c1.4,0,2.5,0.6,3.5,1.3l0,0c-0.1-0.9-1.3-2-2.8-2.2l0,0
							C958.6,317.4,958.6,317.5,958.6,317.6 M964.3,319.3c-0.2,0.2-0.5,0.5-0.8,0.7l0,0c0.5,0.1,1,0.1,1.5,0.2l0,0
							c0,0,0.1,0,0.2-0.1l0,0c0.3-0.2,0.5-0.4,0.7-0.7l0,0c0.2-0.2,0.3-0.4,0.4-0.6l0,0c0.2-0.2,0.3-0.4,0.5-0.6l0,0
							C965.7,318.3,964.9,318.6,964.3,319.3 M969.5,319.3c-0.9,0.1-1.8,0.5-2.7,1l0,0c1.5,0,2.8-0.3,4.1-0.6l0,0
							c-0.3-0.2-0.6-0.4-1.1-0.4l0,0C969.6,319.3,969.6,319.3,969.5,319.3"/>
					</g>
				</g>
			</g>
			<path id="path1436_1_" class="st3" d="M947.7,271.1l0.6-0.4l-1.7-3l-0.6,0.4l0.7,1.1l-3.1,1.8l0.4,0.7l3.1-1.8L947.7,271.1z
				 M950.4,274.5l-3.1,0.5l1.9-2.5l-0.6-1.1l-3.7,2.2l0.4,0.7l2.8-1.6l0,0l-2.2,2.7l0.3,0.6l3.5-0.6l0,0l-2.8,1.6l0.4,0.7l3.7-2.2
				L950.4,274.5z"/>
		</g>
		<g id="g1186_1_">
			<g id="g1192_1_">
				<g id="g1232-4_1_">
					<g id="g1234-8_1_">
						
							<radialGradient id="path1244_4_" cx="985.2962" cy="253.3227" r="20.4028" fx="974.3259" fy="252.8933" gradientTransform="matrix(-0.8459 -0.5334 2.4201 -3.8379 1205.6554 1751.0997)" gradientUnits="userSpaceOnUse">
							<stop  offset="0" style="stop-color:#8C8D90"/>
							<stop  offset="0.2127" style="stop-color:#8C8D90"/>
							<stop  offset="0.3631" style="stop-color:#ABABB0"/>
							<stop  offset="0.4245" style="stop-color:#8C8D90"/>
							<stop  offset="0.6257" style="stop-color:#8C8D90"/>
							<stop  offset="0.6816" style="stop-color:#ABABB0"/>
							<stop  offset="0.7542" style="stop-color:#8C8D90"/>
							<stop  offset="0.8324" style="stop-color:#6E7071"/>
						</radialGradient>
						<path id="path1244_1_" class="st38" d="M952.5,313.5c-0.9-0.1-1.8-0.4-2.6-1.1l0,0c-1.2-0.8-2.1-2.1-2.5-3.4l0,0
							c-1.4-4.1-1.1-12.3,6.3-30.9l0,0c0.8,1.7,1.5,3.2,1.8,3.9l0,0c4.2,8.6,5.3,16.5,5.3,21.3l0,0c-0.4,5.9-3.3,9.5-6.5,10.2l0,0
							c-0.4,0-0.7,0.1-1,0.1l0,0C952.8,313.6,952.7,313.5,952.5,313.5"/>
					</g>
				</g>
			</g>
		</g>
	</g>
</g>
</svg>
