<?xml version="1.0" encoding="utf-8"?>
<!-- Generator: Adobe Illustrator 25.1.0, SVG Export Plug-In . SVG Version: 6.00 Build 0)  -->
<svg version="1.1" id="Capa_1" xmlns="http://www.w3.org/2000/svg" xmlns:xlink="http://www.w3.org/1999/xlink" x="0px" y="0px"
	 viewBox="0 0 606.1 623.7" style="enable-background:new 0 0 606.1 623.7;" xml:space="preserve">
<style type="text/css">
	.st0{fill:#FFFFFF;}
	.st1{fill:#B8B7BC;}
	.st2{fill:#C5C5CA;}
	.st3{fill:#D2D2D6;}
	.st4{fill:#C4C4C8;}
	.st5{clip-path:url(#SVGID_2_);}
	.st6{fill:url(#path148_1_);}
	.st7{clip-path:url(#SVGID_4_);}
	.st8{fill:url(#path216_1_);}
	.st9{clip-path:url(#SVGID_6_);}
	.st10{fill:url(#path578_1_);}
	.st11{clip-path:url(#SVGID_8_);}
	.st12{fill:url(#path964_1_);}
	.st13{clip-path:url(#SVGID_10_);}
	.st14{fill:url(#path1064_1_);}
	.st15{clip-path:url(#SVGID_12_);}
	.st16{fill:url(#path1182_1_);}
	.st17{clip-path:url(#SVGID_14_);}
	.st18{fill:url(#path1244_1_);}
	.st19{fill:#E4E3E5;}
	.st20{opacity:0.43;}
	.st21{fill:url(#path1282_1_);}
	.st22{fill:#FBFBF8;}
	.st23{fill:url(#path618-8_1_);}
	.st24{clip-path:url(#SVGID_16_);}
	.st25{fill:url(#path702_1_);}
	.st26{clip-path:url(#SVGID_18_);}
	.st27{fill:url(#path792_1_);}
	.st28{clip-path:url(#SVGID_20_);}
	.st29{fill:url(#path864_1_);}
	.st30{clip-path:url(#SVGID_22_);}
	.st31{fill:url(#path1120_1_);}
	.st32{fill:url(#path1324_1_);}
	.st33{fill:url(#path1346_1_);}
	.st34{fill:url(#path1368_1_);}
	.st35{fill:#F2F0F0;}
	.st36{fill:url(#path1390_1_);}
	.st37{fill:url(#path1244_2_);}
	.st38{fill:#CCCCCC;}
</style>
<g>
	<g>
		<g>
			<g>
				<g id="g70_6_" transform="translate(69.1677,753.046)">
					<path id="path72_6_" class="st0" d="M233.6-478c-1.4-2.4-2.8-4.7-3.6-6.8c-0.3-0.9-0.5-1.7-0.6-2.6c-0.5-2.4-0.3-3.8,0.6-5.6
						c0,0,0-0.1,0.1-0.1c0.4-0.2,1-0.5,1.7-0.5c1.5-0.2,4.1,0.2,5.1,3C237.8-487.8,235.6-482.1,233.6-478 M243-494.4
						c-0.1-0.2-0.5-0.9-0.6-1.1c0,0,0-0.1,0-0.1c-1.6-2.9-1.7-2.4-2.6-2.5c0,0-0.1,0-0.1,0c-1.1-0.3-3.1-1-4-1.4
						c-1-0.4-3.6,0.4-5.2,0.6c-0.4,0-0.8,0.1-1,0.2c-0.8,0.3-1,0.8-1.3,1.2c-0.2,0.2-0.3,0.3-0.5,0.4h0c-1.3,0.5-4.4,4.3-3.7,9.5
						c0,0.5,0.2,1,0.3,1.5c1.3,5,5.5,11.7,6.5,13.6c-0.8,1.8-2.4,5.4-2.9,8.8c0,0.1-0.2,0.9-0.2,1.6c-0.1,1.7,0.3,3.3,1.3,4.5
						l0.2,0.2c0.5,0.5,1.1,0.8,1.7,1c0.9,0.4,1.5,0.2,2.2,0.1c0.3,0.2,0.6,0.3,0.9,0.4c1.8,0.6,3.9,0.1,4.8-0.4
						c1.3-0.4,1.9-1.2,2.2-2.3c0.4-1.1,0.9-3.3-0.3-6.7c-0.6-1.4-1.7-3.7-3.5-6.9l0,0c1.4-2.7,5.2-9.4,5.9-11.3
						c0-0.1,0.1-0.2,0.1-0.3C244.2-486.9,244.9-490.8,243-494.4"/>
				</g>
				<g id="g78_6_" transform="translate(75.5973,760.9155)">
					<path id="path80_6_" class="st1" d="M230.9-490.5c0.5-2.4,1.7-4.5,0.2-7.9c-1.3-2.8-3.5-3.8-5.8-3.2l0,0c1.5-0.2,4.1,0.2,5.1,3
						c1,2.9-1.2,8.6-3.2,12.7c0,0.1-0.1,0.2-0.1,0.3c1,1.7,1.7,3.1,2.7,4.8c0,0,1.3-2,1.8-3C230.5-486.3,230.6-488.9,230.9-490.5"/>
				</g>
				<g id="g82_6_" transform="translate(85.9583,774.6167)">
					<path id="path84_6_" class="st2" d="M226.6-512.1c0-0.1,0-0.2,0-0.2v0c0,0,0-0.1,0-0.1c0-0.4,0-0.7-0.1-0.9
						c0-0.3-0.1-0.4-0.1-0.6c-0.2-0.6-0.6-1.2-1.1-1.8c-1-1.2-2.2-2.4-2.2-2.4c-0.1,0-0.2,0.1-0.2,0.1c-1,0.6-1,1.5-4.7-0.3
						c-0.6-0.3-1.4-0.1-1.9-0.1C219.9-515.7,223.9-515.8,226.6-512.1"/>
				</g>
				<g id="g86_6_" transform="translate(81.0794,756.8402)">
					<path id="path88_6_" class="st3" d="M228.6-484c0.1-0.2,0.3-0.4,0.4-0.6c0.1-0.2,0.3-0.4,0.4-0.7c0.1-0.1,0.1-0.2,0.2-0.3
						c1.5-3,1.9-6.5,1.9-8.7c-1.9-5.4-7.3-3-9.1-6.4c0,0-1.3,0.1-1.4,0.1c0.1,0.1,0.2,0.2,0.3,0.3c0.7,0.8,2.3,2.4,4.1,2.8
						c1.7,0.4,3.2,0.7,4.7,2.9c1.5,2.2-0.1,5.3-1.5,8.3c-0.6,1.2-0.6,2.4-0.7,3.6c0.2-0.3,0.3-0.7,0.5-1
						C228.5-483.8,228.5-483.9,228.6-484"/>
				</g>
				<g id="g90_6_" transform="translate(83.4878,775.1901)">
					<path id="path92_6_" class="st4" d="M227.6-513c-1.5-2.2-2.9-2.4-4.7-2.9c-1.7-0.4-3.4-2-4.1-2.8c-0.1-0.1-0.2-0.2-0.3-0.3
						c-1.2,0.1-2.2,1.1-2.8,2.5c-0.2,0.5-0.4,1-0.6,1.5c0.5-0.4,1.3-0.8,2.2-0.9c2.3-0.5,4.5,0.5,5.8,3.2c1.5,3.4,0.3,5.4-0.2,7.9
						c-0.3,1.5-0.5,4.2,0.6,6.7c0.4-0.7,0.8-1.6,1.8-3c0.1-1.2,0.1-2.4,0.7-3.6C227.5-507.7,229.1-510.8,227.6-513"/>
				</g>
				<g>
					<g>
						<g>
							<g>
								<defs>
									<path id="SVGID_1_" d="M302.2,256.2C302.1,256.2,302.1,256.2,302.2,256.2L302.2,256.2c-1.3,0.1-2.3,1.1-2.9,2.5l0,0
										c-0.2,0.5-0.4,1-0.6,1.6l0,0c0.1-0.1,0.3-0.2,0.5-0.4l0,0c0.4-0.2,1-0.5,1.7-0.5l0,0c1.5-0.2,4.1,0.2,5.1,3l0,0
										c1,2.9-1.2,8.6-3.2,12.7l0,0c1,1.7,1.5,2.7,2.6,4.5l0,0c0,0,4.7-7.2,4.8-7.3l0,0c1.5-3,2.3-6.7,2.1-9.6l0,0
										c-0.4-4.7-3.3-6.1-3.4-6.2l0,0c-0.1,0-0.2,0.1-0.2,0.1l0,0c-1,0.6-1.1,1.6-4.7-0.1l0,0c-0.4-0.2-0.9-0.2-1.3-0.2l0,0
										C302.5,256.2,302.3,256.2,302.2,256.2"/>
								</defs>
								<clipPath id="SVGID_2_">
									<use xlink:href="#SVGID_1_"  style="overflow:visible;"/>
								</clipPath>
								<g id="g96_6_" class="st5">
									<g id="g102_6_">
										<g id="g138_6_">
											<g id="g140_6_">
												
													<linearGradient id="path148_1_" gradientUnits="userSpaceOnUse" x1="-2115.0051" y1="-757.6233" x2="-2114.7949" y2="-757.6233" gradientTransform="matrix(10.7602 -26.1796 26.1796 10.7602 42891.8359 -46939.9727)">
													<stop  offset="0" style="stop-color:#96979A"/>
													<stop  offset="1" style="stop-color:#AEAFB3"/>
												</linearGradient>
												<path id="path148_6_" class="st6" d="M302.2,256.2C302.1,256.2,302.1,256.2,302.2,256.2L302.2,256.2
													c-1.3,0.1-2.3,1.1-2.9,2.5l0,0c-0.2,0.5-0.4,1-0.6,1.6l0,0c0.1-0.1,0.3-0.2,0.5-0.4l0,0c0.4-0.2,1-0.5,1.7-0.5l0,0
													c1.5-0.2,4.1,0.2,5.1,3l0,0c1,2.9-1.2,8.6-3.2,12.7l0,0c1,1.7,1.5,2.7,2.6,4.5l0,0c0,0,4.7-7.2,4.8-7.3l0,0
													c1.5-3,2.3-6.7,2.1-9.6l0,0c-0.4-4.7-3.3-6.1-3.4-6.2l0,0c-0.1,0-0.2,0.1-0.2,0.1l0,0c-1,0.6-1.1,1.6-4.7-0.1l0,0
													c-0.4-0.2-0.9-0.2-1.3-0.2l0,0C302.5,256.2,302.3,256.2,302.2,256.2"/>
											</g>
										</g>
									</g>
								</g>
							</g>
						</g>
					</g>
				</g>
				<g>
					<g>
						<g>
							<g>
								<defs>
									<path id="SVGID_3_" d="M302.2,256.2C302.1,256.2,302.1,256.2,302.2,256.2L302.2,256.2c-1.3,0.1-2.3,1.1-2.9,2.5l0,0
										c-0.2,0.5-0.4,1-0.6,1.6l0,0c0.1-0.1,0.3-0.2,0.5-0.4l0,0c0.4-0.2,1-0.5,1.7-0.5l0,0c1.5-0.2,4.1,0.2,5.1,3l0,0
										c1,2.9-1.2,8.6-3.2,12.7l0,0c1,1.7,1.8,3.4,2.7,5.1l0,0c0,0,5-8.7,5.1-8.8l0,0c1.5-3,2.1-6.5,1.9-8.7l0,0
										c-0.2-2.2-0.7-3-1.2-3.8l0,0c-0.2-0.3-2.3-2.3-2.4-2.3l0,0c-0.1,0-0.2,0.1-0.2,0.1l0,0c-1,0.6-1.1,1.6-4.7-0.1l0,0
										c-0.4-0.2-0.9-0.2-1.3-0.2l0,0C302.5,256.2,302.3,256.2,302.2,256.2"/>
								</defs>
								<clipPath id="SVGID_4_">
									<use xlink:href="#SVGID_3_"  style="overflow:visible;"/>
								</clipPath>
								<g id="g164_6_" class="st7">
									<g id="g170_6_">
										<g id="g206_6_">
											<g id="g208_6_">
												
													<radialGradient id="path216_1_" cx="-2084.1331" cy="-870.259" r="0.4561" gradientTransform="matrix(35.2883 21.2025 -46.8897 78.0409 33036.1055 112378.3516)" gradientUnits="userSpaceOnUse">
													<stop  offset="0.2905" style="stop-color:#ABABB0"/>
													<stop  offset="0.3858" style="stop-color:#8C8D90"/>
													<stop  offset="0.4469" style="stop-color:#6E7071"/>
													<stop  offset="0.5143" style="stop-color:#8C8D90"/>
													<stop  offset="0.5922" style="stop-color:#ABABB0"/>
												</radialGradient>
												<path id="path216_6_" class="st8" d="M302.2,256.2C302.1,256.2,302.1,256.2,302.2,256.2L302.2,256.2
													c-1.3,0.1-2.3,1.1-2.9,2.5l0,0c-0.2,0.5-0.4,1-0.6,1.6l0,0c0.1-0.1,0.3-0.2,0.5-0.4l0,0c0.4-0.2,1-0.5,1.7-0.5l0,0
													c1.5-0.2,4.1,0.2,5.1,3l0,0c1,2.9-1.2,8.6-3.2,12.7l0,0c1,1.7,1.8,3.4,2.7,5.1l0,0c0,0,5-8.7,5.1-8.8l0,0
													c1.5-3,2.1-6.5,1.9-8.7l0,0c-0.2-2.2-0.7-3-1.2-3.8l0,0c-0.2-0.3-2.3-2.3-2.4-2.3l0,0c-0.1,0-0.2,0.1-0.2,0.1l0,0
													c-1,0.6-1.1,1.6-4.7-0.1l0,0c-0.4-0.2-0.9-0.2-1.3-0.2l0,0C302.5,256.2,302.3,256.2,302.2,256.2"/>
											</g>
										</g>
									</g>
								</g>
							</g>
						</g>
					</g>
				</g>
				<g>
					<g>
						<g>
							<g>
								<defs>
									<path id="SVGID_5_" d="M300.9,258.9c-0.2,0-0.9,0.2-1.3,0.3l0,0l-0.2,0.4l-0.1,0.3c0.4-0.2,1-0.5,1.7-0.5l0,0
										c1.5-0.2,4.1,0.2,5.1,3l0,0c1,2.9-1.2,8.6-3.2,12.7l0,0c0,0.1-0.1,0.2-0.1,0.3l0,0c0.3,0.3,0.6,0.5,0.6,0.5l0,0
										c0.1-0.1,0.1-0.2,0.2-0.3l0,0c2-4.2,4-10.3,3-13.3l0,0c-0.4-1.2-1.1-2.1-2.2-2.6l0,0c-0.1,0-0.4-0.2-0.6-0.3l0,0
										c-0.1,0-0.1,0-0.2-0.1l0,0c-0.1,0-0.5-0.2-0.6-0.2l0,0c-0.2-0.1-0.5-0.1-0.8-0.1l0,0c-0.2,0-0.4,0-0.6,0l0,0
										C301.3,258.9,301.1,258.9,300.9,258.9"/>
								</defs>
								<clipPath id="SVGID_6_">
									<use xlink:href="#SVGID_5_"  style="overflow:visible;"/>
								</clipPath>
								<g id="g528_6_" class="st9">
									<g id="g534_6_">
										<g id="g568_6_">
											<g id="g570_6_">
												
													<linearGradient id="path578_1_" gradientUnits="userSpaceOnUse" x1="-2101.2087" y1="-879.5644" x2="-2100.9985" y2="-879.5644" gradientTransform="matrix(0 41.8052 -41.8052 0 -36467.4375 88100.0156)">
													<stop  offset="0" style="stop-color:#F2F0F0"/>
													<stop  offset="1" style="stop-color:#F2F0F0"/>
												</linearGradient>
												<path id="path578_6_" class="st10" d="M300.9,258.9c-0.2,0-0.9,0.2-1.3,0.3l0,0l-0.2,0.4l-0.1,0.3
													c0.4-0.2,1-0.5,1.7-0.5l0,0c1.5-0.2,4.1,0.2,5.1,3l0,0c1,2.9-1.2,8.6-3.2,12.7l0,0c0,0.1-0.1,0.2-0.1,0.3l0,0
													c0.3,0.3,0.6,0.5,0.6,0.5l0,0c0.1-0.1,0.1-0.2,0.2-0.3l0,0c2-4.2,4-10.3,3-13.3l0,0c-0.4-1.2-1.1-2.1-2.2-2.6l0,0
													c-0.1,0-0.4-0.2-0.6-0.3l0,0c-0.1,0-0.1,0-0.2-0.1l0,0c-0.1,0-0.5-0.2-0.6-0.2l0,0c-0.2-0.1-0.5-0.1-0.8-0.1l0,0
													c-0.2,0-0.4,0-0.6,0l0,0C301.3,258.9,301.1,258.9,300.9,258.9"/>
											</g>
										</g>
									</g>
								</g>
							</g>
						</g>
					</g>
				</g>
				<g>
					<g>
						<g>
							<g>
								<defs>
									<path id="SVGID_7_" d="M295.3,257.5c-1.9,2.6-2.4,6.9-1.6,9.2l0,0c1,2.9,1.4,4.3,3.9,8.2l0,0c0.2,0.4-1.3-5.6-1.6-7l0,0
										c-0.3-1.3-1.2-6.7,0.7-10.9l0,0c0.2-0.4,0.4-0.8,0.6-1.2l0,0C296.5,256.1,295.9,256.8,295.3,257.5"/>
								</defs>
								<clipPath id="SVGID_8_">
									<use xlink:href="#SVGID_7_"  style="overflow:visible;"/>
								</clipPath>
								<g id="g912_6_" class="st11">
									<g id="g918_6_">
										<g id="g954_6_">
											<g id="g956_6_">
												
													<linearGradient id="path964_1_" gradientUnits="userSpaceOnUse" x1="-2105.8318" y1="-874.5963" x2="-2105.6216" y2="-874.5963" gradientTransform="matrix(-2.7788 48.1659 -48.1659 -2.7788 -47681.1367 99254.6328)">
													<stop  offset="0" style="stop-color:#FBFBF8"/>
													<stop  offset="1" style="stop-color:#FBFBF8"/>
												</linearGradient>
												<path id="path964_6_" class="st12" d="M295.3,257.5c-1.9,2.6-2.4,6.9-1.6,9.2l0,0c1,2.9,1.4,4.3,3.9,8.2l0,0
													c0.2,0.4-1.3-5.6-1.6-7l0,0c-0.3-1.3-1.2-6.7,0.7-10.9l0,0c0.2-0.4,0.4-0.8,0.6-1.2l0,0
													C296.5,256.1,295.9,256.8,295.3,257.5"/>
											</g>
										</g>
									</g>
								</g>
							</g>
						</g>
					</g>
				</g>
				<g>
					<g>
						<g>
							<g>
								<defs>
									<path id="SVGID_9_" d="M299.3,271.9c0-0.2-0.1-0.3-0.1-0.3l0,0C299.2,271.6,299.2,271.7,299.3,271.9 M299.2,279.3
										c0.1,0.2,0.2,0.3,0.3,0.4l0,0c0,0.1,0.1,0.1,0.1,0.2l0,0c3.3,5.7,8.4,9.9,5.5,14.4l0,0c-0.3,0.4-0.5,0.8-1,1.2l0,0
										c0.5-0.4,0.9-0.4,1.3-0.3l0,0c0.4,0.1,0.7,0.1,1.1-0.4l0,0c0.1-0.1,0.2-0.4,0.4-0.7l0,0c0.1-0.2,0.1-0.3,0.2-0.6l0,0
										c0,0,1.6,2.1,3.1,0.6l0,0c0.5-1.7,0.7-4.3-1.6-7.1l0,0c-2.6-3.2-4.2-3.5-6.3-7.1l0,0c-1.7-2.8-2.7-7-2.9-8.1l0,0
										C299.5,273.1,300.4,277.7,299.2,279.3"/>
								</defs>
								<clipPath id="SVGID_10_">
									<use xlink:href="#SVGID_9_"  style="overflow:visible;"/>
								</clipPath>
								<g id="g1012_6_" class="st13">
									<g id="g1018_6_">
										<g id="g1054_6_">
											<g id="g1056_6_">
												
													<linearGradient id="path1064_1_" gradientUnits="userSpaceOnUse" x1="-2049.0481" y1="-808.6817" x2="-2048.8379" y2="-808.6817" gradientTransform="matrix(28.4186 0 0 28.4186 58530.2344 23265.1895)">
													<stop  offset="0" style="stop-color:#DFDEE0"/>
													<stop  offset="1" style="stop-color:#F7F6F5"/>
												</linearGradient>
												<path id="path1064_6_" class="st14" d="M299.3,271.9c0-0.2-0.1-0.3-0.1-0.3l0,0C299.2,271.6,299.2,271.7,299.3,271.9
													 M299.2,279.3c0.1,0.2,0.2,0.3,0.3,0.4l0,0c0,0.1,0.1,0.1,0.1,0.2l0,0c3.3,5.7,8.4,9.9,5.5,14.4l0,0
													c-0.3,0.4-0.5,0.8-1,1.2l0,0c0.5-0.4,0.9-0.4,1.3-0.3l0,0c0.4,0.1,0.7,0.1,1.1-0.4l0,0c0.1-0.1,0.2-0.4,0.4-0.7l0,0
													c0.1-0.2,0.1-0.3,0.2-0.6l0,0c0,0,1.6,2.1,3.1,0.6l0,0c0.5-1.7,0.7-4.3-1.6-7.1l0,0c-2.6-3.2-4.2-3.5-6.3-7.1l0,0
													c-1.7-2.8-2.7-7-2.9-8.1l0,0C299.5,273.1,300.4,277.7,299.2,279.3"/>
											</g>
										</g>
									</g>
								</g>
							</g>
						</g>
					</g>
				</g>
				<g>
					<g>
						<g>
							<g>
								<defs>
									<path id="SVGID_11_" d="M303.8,253.4c-1.2,0-3.1,0.5-4.5,0.7l0,0c-0.4,0-0.8,0.1-1,0.2l0,0c-0.8,0.3-1,0.8-1.3,1.2l0,0
										c-0.2,0.2-0.3,0.3-0.5,0.4l0,0h0l0,0c-1.3,0.5-4.4,4.3-3.7,9.5l0,0c0,0.5,0.2,1,0.3,1.5l0,0c1.3,5,5.5,11.7,6.5,13.6l0,0
										c-0.8,1.8-2.4,5.4-2.9,8.8l0,0c0,0.1-0.2,0.9-0.2,1.6l0,0c-0.1,1.7,0.3,3.3,1.3,4.5l0,0c0,0,0.2,0.2,0.2,0.2l0,0
										c0.5,0.5,1.1,0.8,1.7,1l0,0l0,0c0.9,0.4,1.5,0.2,2.2,0.1l0,0c0.3,0.2,0.6,0.3,0.9,0.4l0,0c1.8,0.6,3.9,0.1,4.8-0.4l0,0
										c1.3-0.4,1.9-1.2,2.2-2.3l0,0c0.4-1.1,0.9-3.3-0.3-6.6l0,0c-0.6-1.4-1.7-3.7-3.5-6.9l0,0l0,0c1.4-2.7,5.2-9.4,5.9-11.3l0,0
										c0-0.1,0.1-0.2,0.1-0.3l0,0c1.1-3,1.9-6.9-0.1-10.5l0,0c-0.1-0.2-0.5-0.9-0.6-1.1l0,0c0,0,0-0.1,0-0.1l0,0
										c-1.6-2.9-1.7-2.4-2.6-2.5l0,0c0,0-0.1,0-0.1,0l0,0c-1.1-0.3-3.1-1-4-1.3l0,0c-0.2-0.1-0.4-0.1-0.6-0.1l0,0L303.8,253.4
										L303.8,253.4L303.8,253.4z M305,279.1c-0.1-0.1-0.1-0.2-0.2-0.3l0,0c-2.2-3.9-4.6-7.4-5.9-10.6l0,0
										c-0.3-0.9-0.5-1.7-0.6-2.6l0,0c-0.5-2.4-0.3-3.8,0.6-5.6l0,0c0.9-1.8,3.5-4.1,5-3.4l0,0c1.6,0.8,2.5,0.9,3.1,0.9l0,0
										c0.6-0.1,0.8-0.4,1.2-0.7l0,0c0.1-0.1,0.3-0.2,0.3-0.2l0,0c0.9,0.7,1.5,1.5,2,2.2l0,0c4.4,6.7-2.9,16.9-5.2,20.7l0,0
										C305.1,279.3,305,279.1,305,279.1 M299.6,294.5c-0.3,0-0.7-0.2-1-0.4l0,0c-0.4-0.3-0.8-0.8-0.9-1.3l0,0
										c-0.5-1.5-0.4-4.6,2.3-11.5l0,0c0.3,0.6,0.6,1.2,0.7,1.5l0,0c1.6,3.2,2,6.2,2,7.9l0,0c-0.2,2.2-1.2,3.6-2.4,3.8l0,0
										c-0.1,0-0.3,0-0.4,0l0,0C299.7,294.5,299.7,294.5,299.6,294.5"/>
								</defs>
								<clipPath id="SVGID_12_">
									<use xlink:href="#SVGID_11_"  style="overflow:visible;"/>
								</clipPath>
								<g id="g1124_6_" class="st15">
									<g id="g1130_6_">
										<g id="g1170_6_">
											<g id="g1172-6_6_">
												
													<linearGradient id="path1182_1_" gradientUnits="userSpaceOnUse" x1="-2111.4688" y1="-852.5995" x2="-2111.2585" y2="-852.5995" gradientTransform="matrix(0 96.7449 -96.7449 0 -82181.7031 204530.9688)">
													<stop  offset="0" style="stop-color:#DFDEE0"/>
													<stop  offset="0.5124" style="stop-color:#FBFBF8"/>
													<stop  offset="1" style="stop-color:#EFEEEF"/>
												</linearGradient>
												<path id="path1182_6_" class="st16" d="M303.8,253.4c-1.2,0-3.1,0.5-4.5,0.7l0,0c-0.4,0-0.8,0.1-1,0.2l0,0
													c-0.8,0.3-1,0.8-1.3,1.2l0,0c-0.2,0.2-0.3,0.3-0.5,0.4l0,0h0l0,0c-1.3,0.5-4.4,4.3-3.7,9.5l0,0c0,0.5,0.2,1,0.3,1.5l0,0
													c1.3,5,5.5,11.7,6.5,13.6l0,0c-0.8,1.8-2.4,5.4-2.9,8.8l0,0c0,0.1-0.2,0.9-0.2,1.6l0,0c-0.1,1.7,0.3,3.3,1.3,4.5l0,0
													c0,0,0.2,0.2,0.2,0.2l0,0c0.5,0.5,1.1,0.8,1.7,1l0,0l0,0c0.9,0.4,1.5,0.2,2.2,0.1l0,0c0.3,0.2,0.6,0.3,0.9,0.4l0,0
													c1.8,0.6,3.9,0.1,4.8-0.4l0,0c1.3-0.4,1.9-1.2,2.2-2.3l0,0c0.4-1.1,0.9-3.3-0.3-6.6l0,0c-0.6-1.4-1.7-3.7-3.5-6.9l0,0
													l0,0c1.4-2.7,5.2-9.4,5.9-11.3l0,0c0-0.1,0.1-0.2,0.1-0.3l0,0c1.1-3,1.9-6.9-0.1-10.5l0,0c-0.1-0.2-0.5-0.9-0.6-1.1l0,0
													c0,0,0-0.1,0-0.1l0,0c-1.6-2.9-1.7-2.4-2.6-2.5l0,0c0,0-0.1,0-0.1,0l0,0c-1.1-0.3-3.1-1-4-1.3l0,0
													c-0.2-0.1-0.4-0.1-0.6-0.1l0,0L303.8,253.4L303.8,253.4L303.8,253.4z M305,279.1c-0.1-0.1-0.1-0.2-0.2-0.3l0,0
													c-2.2-3.9-4.6-7.4-5.9-10.6l0,0c-0.3-0.9-0.5-1.7-0.6-2.6l0,0c-0.5-2.4-0.3-3.8,0.6-5.6l0,0c0.9-1.8,3.5-4.1,5-3.4l0,0
													c1.6,0.8,2.5,0.9,3.1,0.9l0,0c0.6-0.1,0.8-0.4,1.2-0.7l0,0c0.1-0.1,0.3-0.2,0.3-0.2l0,0c0.9,0.7,1.5,1.5,2,2.2l0,0
													c4.4,6.7-2.9,16.9-5.2,20.7l0,0C305.1,279.3,305,279.1,305,279.1 M299.6,294.5c-0.3,0-0.7-0.2-1-0.4l0,0
													c-0.4-0.3-0.8-0.8-0.9-1.3l0,0c-0.5-1.5-0.4-4.6,2.3-11.5l0,0c0.3,0.6,0.6,1.2,0.7,1.5l0,0c1.6,3.2,2,6.2,2,7.9l0,0
													c-0.2,2.2-1.2,3.6-2.4,3.8l0,0c-0.1,0-0.3,0-0.4,0l0,0C299.7,294.5,299.7,294.5,299.6,294.5"/>
											</g>
										</g>
									</g>
								</g>
							</g>
						</g>
					</g>
				</g>
				<g>
					<g>
						<g>
							<g>
								<defs>
									<path id="SVGID_13_" d="M303.8,253.4c-1.2,0-3.2,0.5-4.5,0.7l0,0c-0.4,0-0.8,0.1-1,0.2l0,0c-0.8,0.3-1,0.8-1.3,1.2l0,0
										c-0.2,0.2-0.3,0.3-0.5,0.4l0,0h0l0,0c-1.3,0.5-4.4,4.3-3.7,9.5l0,0c0,0.5,0.2,1,0.3,1.5l0,0c1.3,5,5.5,11.7,6.5,13.6l0,0
										c-0.8,1.8-2.4,5.4-2.9,8.8l0,0c0,0.1-0.2,0.9-0.2,1.6l0,0c-0.1,1.7,0.3,3.3,1.3,4.5l0,0c0,0,0.2,0.2,0.2,0.2l0,0
										c0.5,0.5,1.1,0.8,1.7,1l0,0l0,0c0.9,0.4,1.5,0.2,2.2,0.1l0,0c0.3,0.2,0.6,0.3,0.9,0.4l0,0c0.6,0.2,1.3,0.3,1.9,0.3l0,0
										c1.2,0,2.3-0.4,2.9-0.7l0,0c1.3-0.4,1.9-1.2,2.2-2.3l0,0c0.4-1.1,0.9-3.3-0.3-6.6l0,0c-0.6-1.4-1.7-3.7-3.5-6.9l0,0l0,0
										c1.4-2.7,5.2-9.4,5.9-11.3l0,0c0-0.1,0.1-0.2,0.1-0.3l0,0c1.1-3,1.9-6.9-0.1-10.5l0,0c-0.1-0.2-0.5-0.9-0.6-1.1l0,0
										c0,0,0-0.1,0-0.1l0,0c-1.6-2.9-1.7-2.4-2.6-2.5l0,0c0,0-0.1,0-0.1,0l0,0c-1.1-0.3-3.1-1-4-1.3l0,0
										C304.3,253.4,304.1,253.4,303.8,253.4L303.8,253.4L303.8,253.4z M305,279.1c-0.1-0.1-0.1-0.2-0.2-0.3l0,0
										c-2.2-3.9-4.6-7.4-5.9-10.6l0,0c-0.3-0.9-0.5-1.7-0.6-2.6l0,0c-0.5-2.4-0.3-3.8,0.6-5.6l0,0c0.9-1.8,3.5-4.1,5-3.4l0,0
										c1.6,0.8,2.5,0.9,3.1,0.9l0,0c0.6-0.1,0.8-0.4,1.2-0.7l0,0c0.1-0.1,0.3-0.2,0.3-0.2l0,0c0.9,0.7,1.5,1.5,2,2.2l0,0
										c4.4,6.7-2.9,16.9-5.2,20.7l0,0C305.1,279.3,305,279.1,305,279.1 M299.6,294.5c-0.3,0-0.7-0.2-1-0.4l0,0
										c-0.4-0.3-0.8-0.8-0.9-1.3l0,0c-0.5-1.5-0.4-4.6,2.3-11.5l0,0c0.3,0.6,0.6,1.2,0.7,1.5l0,0c1.6,3.2,2,6.2,2,7.9l0,0
										c-0.2,2.2-1.2,3.6-2.4,3.8l0,0c-0.1,0-0.3,0-0.4,0l0,0C299.7,294.5,299.7,294.5,299.6,294.5"/>
								</defs>
								<clipPath id="SVGID_14_">
									<use xlink:href="#SVGID_13_"  style="overflow:visible;"/>
								</clipPath>
								<g id="g1186_12_" class="st17">
									<g id="g1192_12_">
										<g id="g1232-4_12_">
											<g id="g1234-8_12_">
												
													<linearGradient id="path1244_1_" gradientUnits="userSpaceOnUse" x1="-2111.3811" y1="-852.5991" x2="-2111.1709" y2="-852.5991" gradientTransform="matrix(0 96.7448 -96.7448 0 -82181.5781 204520.0312)">
													<stop  offset="0" style="stop-color:#DFDEE0"/>
													<stop  offset="0.5124" style="stop-color:#FBFBF8"/>
													<stop  offset="1" style="stop-color:#EFEEEF"/>
												</linearGradient>
												<path id="path1244_12_" class="st18" d="M303.8,253.4c-1.2,0-3.2,0.5-4.5,0.7l0,0c-0.4,0-0.8,0.1-1,0.2l0,0
													c-0.8,0.3-1,0.8-1.3,1.2l0,0c-0.2,0.2-0.3,0.3-0.5,0.4l0,0h0l0,0c-1.3,0.5-4.4,4.3-3.7,9.5l0,0c0,0.5,0.2,1,0.3,1.5l0,0
													c1.3,5,5.5,11.7,6.5,13.6l0,0c-0.8,1.8-2.4,5.4-2.9,8.8l0,0c0,0.1-0.2,0.9-0.2,1.6l0,0c-0.1,1.7,0.3,3.3,1.3,4.5l0,0
													c0,0,0.2,0.2,0.2,0.2l0,0c0.5,0.5,1.1,0.8,1.7,1l0,0l0,0c0.9,0.4,1.5,0.2,2.2,0.1l0,0c0.3,0.2,0.6,0.3,0.9,0.4l0,0
													c0.6,0.2,1.3,0.3,1.9,0.3l0,0c1.2,0,2.3-0.4,2.9-0.7l0,0c1.3-0.4,1.9-1.2,2.2-2.3l0,0c0.4-1.1,0.9-3.3-0.3-6.6l0,0
													c-0.6-1.4-1.7-3.7-3.5-6.9l0,0l0,0c1.4-2.7,5.2-9.4,5.9-11.3l0,0c0-0.1,0.1-0.2,0.1-0.3l0,0c1.1-3,1.9-6.9-0.1-10.5l0,0
													c-0.1-0.2-0.5-0.9-0.6-1.1l0,0c0,0,0-0.1,0-0.1l0,0c-1.6-2.9-1.7-2.4-2.6-2.5l0,0c0,0-0.1,0-0.1,0l0,0
													c-1.1-0.3-3.1-1-4-1.3l0,0C304.3,253.4,304.1,253.4,303.8,253.4L303.8,253.4L303.8,253.4z M305,279.1
													c-0.1-0.1-0.1-0.2-0.2-0.3l0,0c-2.2-3.9-4.6-7.4-5.9-10.6l0,0c-0.3-0.9-0.5-1.7-0.6-2.6l0,0c-0.5-2.4-0.3-3.8,0.6-5.6
													l0,0c0.9-1.8,3.5-4.1,5-3.4l0,0c1.6,0.8,2.5,0.9,3.1,0.9l0,0c0.6-0.1,0.8-0.4,1.2-0.7l0,0c0.1-0.1,0.3-0.2,0.3-0.2l0,0
													c0.9,0.7,1.5,1.5,2,2.2l0,0c4.4,6.7-2.9,16.9-5.2,20.7l0,0C305.1,279.3,305,279.1,305,279.1 M299.6,294.5
													c-0.3,0-0.7-0.2-1-0.4l0,0c-0.4-0.3-0.8-0.8-0.9-1.3l0,0c-0.5-1.5-0.4-4.6,2.3-11.5l0,0c0.3,0.6,0.6,1.2,0.7,1.5l0,0
													c1.6,3.2,2,6.2,2,7.9l0,0c-0.2,2.2-1.2,3.6-2.4,3.8l0,0c-0.1,0-0.3,0-0.4,0l0,0C299.7,294.5,299.7,294.5,299.6,294.5"/>
											</g>
										</g>
									</g>
								</g>
							</g>
						</g>
					</g>
				</g>
				<g id="g1254_6_" transform="translate(70.6061,724.9276)">
					<path id="path1256-2_6_" class="st19" d="M233-433.6c0-2-0.3-4-1-5.9c-0.6-1.9-1.5-3.7-2.6-5.4c-0.5-0.9-1.1-1.7-1.6-2.6
						c-0.5-0.9-1-1.8-1.5-2.7c-0.9-1.8-1.8-3.6-2.5-5.6c0.4,0.9,0.8,1.8,1.3,2.7c0.5,0.9,0.9,1.8,1.5,2.7c1,1.8,2,3.5,3.1,5.2
						c1,1.7,1.9,3.6,2.5,5.6c0.3,1,0.5,2,0.6,3C233.1-435.7,233.1-434.6,233-433.6"/>
				</g>
				<g id="g1292-7_6_" class="st20">
					<g id="g1290-2_6_">
						<g id="g1288-2_6_">
							<g id="g1286_6_">
								<g id="g1284_6_">
									
										<linearGradient id="path1282_1_" gradientUnits="userSpaceOnUse" x1="-2138.1333" y1="-801.2264" x2="-2137.925" y2="-801.2264" gradientTransform="matrix(-13.562 -55.7733 55.7733 -13.562 15994.5 -129823.7188)">
										<stop  offset="0" style="stop-color:#F7F6F5"/>
										<stop  offset="0.5124" style="stop-color:#FBFBF8"/>
										<stop  offset="0.6773" style="stop-color:#FBFBF8"/>
										<stop  offset="0.901" style="stop-color:#ECEBEC"/>
										<stop  offset="1" style="stop-color:#D2D2D6"/>
									</linearGradient>
									<path id="path1282_6_" class="st21" d="M295.7,271.7c0.5,0.9,0.9,1.8,1.5,2.6l0,0c0.2,0.4,0.4,0.7,0.6,1.1l0,0
										c0.6,0.9,1.3,1.9,2,2.9l0,0c3.4,4.3,5.5,8.7,4,13l0,0c-0.3,0.8-0.1,1.1,0.2,1.2l0,0h0c1,0,3.3-2.4,3.4-6.1l0,0v-0.2
										c0-2.5-1.1-5.5-4.5-8.8l0,0c-5.3-4-8.4-8.4-8.4-8.4l0,0C294.8,270,295.3,270.8,295.7,271.7"/>
								</g>
							</g>
						</g>
					</g>
				</g>
				<g id="g1300_6_" transform="translate(81.058,731.191)">
					<path id="path1302_6_" class="st22" d="M228.6-443.5c-0.6-1.4-1.7-3.7-3.5-6.9l0,0l-1.2-1.9c-2.2-3.9-4.6-7.4-5.9-10.6
						c-0.3-0.9-0.5-1.7-0.6-2.6c0,0,0,0,0,0v0c0.1,0.8,0.1,1.6,0.4,2.9c0.5,2.4,1.6,5,3.6,7.5c2.3,2.9,5,6.4,6.2,11.8
						c0.2,0.7,0.4,2.2,0.5,3.7c0.1,1.7-0.2,2.9-0.8,4.2c0,0,0.4,0.5,1.5-1c0.1-0.1,0.2-0.3,0.2-0.4
						C229.3-438,229.9-440.2,228.6-443.5"/>
				</g>
				<g id="g602_6_">
					<g id="g608_6_">
						<g id="g610_6_">
							
								<linearGradient id="path618-8_1_" gradientUnits="userSpaceOnUse" x1="-2041.6008" y1="-725.951" x2="-2041.3817" y2="-725.951" gradientTransform="matrix(13.673 -8.8573 8.8573 13.673 34642.2344 -7899.2783)">
								<stop  offset="0" style="stop-color:#F7F6F5"/>
								<stop  offset="1" style="stop-color:#FBFBF8"/>
							</linearGradient>
							<path id="path618-8_6_" class="st23" d="M300.6,254.5c-0.3,0.1-0.5,0.2-0.7,0.3l0,0c-2.4,1.3-3,2.6-3.1,2.7l0,0
								c-0.3,0.4-0.6,0.8-0.6,1.4l0.4,0c0.4,0.2,1.5-0.7,2.9-1.8l0.8-0.6c0.3-0.2,1.1-0.8,1.1-0.8s1.7-1.2,2.6-0.8l0,0
								c0.1,0,0.1,0.1,0.2,0.1l0,0c-0.1-0.1-0.2-0.1-0.3-0.2l0,0c-0.6-0.3-1.3-0.6-2-0.6l0,0C301.4,254.3,301,254.4,300.6,254.5"/>
						</g>
					</g>
				</g>
				<g>
					<g>
						<g>
							<g>
								<defs>
									<path id="SVGID_15_" d="M302.8,253.9c-0.1,0-3.8,0.2-4.3,0.4l0,0c-0.8,0.3-1,0.8-1.3,1.2l0,0c-0.2,0.2-0.3,0.3-0.5,0.4l0,0
										c0.1,0,0.3-0.1,0.4-0.1l0,0c0.4-0.1,0.8-0.3,1.2-0.5l0,0c0.4-0.2,0.8-0.4,1.4-0.6l0,0c0.3-0.1,1-0.4,1.3-0.5l0,0
										c0.4-0.1,1.2-0.2,1.3-0.3l0,0c0.1,0,0.4,0,0.5-0.1l0,0C302.8,253.9,302.8,253.9,302.8,253.9"/>
								</defs>
								<clipPath id="SVGID_16_">
									<use xlink:href="#SVGID_15_"  style="overflow:visible;"/>
								</clipPath>
								<g id="g650_6_" class="st24">
									<g id="g656_6_">
										<g id="g692-2_6_">
											<g id="g694-3_6_">
												
													<linearGradient id="path702_1_" gradientUnits="userSpaceOnUse" x1="-1990.3002" y1="-782.3923" x2="-1990.09" y2="-782.3923" gradientTransform="matrix(15.5558 0 0 15.5558 31257.4062 12425.6367)">
													<stop  offset="0" style="stop-color:#BBBBC0"/>
													<stop  offset="1" style="stop-color:#F7F6F5"/>
												</linearGradient>
												<path id="path702_6_" class="st25" d="M302.8,253.9c-0.1,0-3.8,0.2-4.3,0.4l0,0c-0.8,0.3-1,0.8-1.3,1.2l0,0
													c-0.2,0.2-0.3,0.3-0.5,0.4l0,0c0.1,0,0.3-0.1,0.4-0.1l0,0c0.4-0.1,0.8-0.3,1.2-0.5l0,0c0.4-0.2,0.8-0.4,1.4-0.6l0,0
													c0.3-0.1,1-0.4,1.3-0.5l0,0c0.4-0.1,1.2-0.2,1.3-0.3l0,0c0.1,0,0.4,0,0.5-0.1l0,0C302.8,253.9,302.8,253.9,302.8,253.9"
													/>
											</g>
										</g>
									</g>
								</g>
							</g>
						</g>
					</g>
				</g>
				<g>
					<g>
						<g>
							<g>
								<defs>
									<path id="SVGID_17_" d="M308.7,256.6C308.7,256.6,308.7,256.6,308.7,256.6L308.7,256.6c0.6-0.4,1.8-0.6,2.9,0.9l0,0l0,0
										c-1.5-2.6-3-2.3-4.4-2.1l0,0c-1,0.2-1.9,0.3-3-0.3l0,0C305.6,256,307.3,257.4,308.7,256.6"/>
								</defs>
								<clipPath id="SVGID_18_">
									<use xlink:href="#SVGID_17_"  style="overflow:visible;"/>
								</clipPath>
								<g id="g734_6_" class="st26">
									<g id="g740_6_">
										<g id="g780_6_">
											<g id="g782_6_">
												
													<linearGradient id="path792_1_" gradientUnits="userSpaceOnUse" x1="-2205.0405" y1="-821.3121" x2="-2204.8303" y2="-821.3121" gradientTransform="matrix(-21.2904 -11.5512 11.5512 -21.2904 -37146.543 -42698.4883)">
													<stop  offset="0" style="stop-color:#FBFBF8"/>
													<stop  offset="0.527" style="stop-color:#FBFBF8"/>
													<stop  offset="1" style="stop-color:#BEBFC3"/>
												</linearGradient>
												<path id="path792_6_" class="st27" d="M308.7,256.6C308.7,256.6,308.7,256.6,308.7,256.6L308.7,256.6
													c0.6-0.4,1.8-0.6,2.9,0.9l0,0l0,0c-1.5-2.6-3-2.3-4.4-2.1l0,0c-1,0.2-1.9,0.3-3-0.3l0,0
													C305.6,256,307.3,257.4,308.7,256.6"/>
											</g>
										</g>
									</g>
								</g>
							</g>
						</g>
					</g>
				</g>
				<g>
					<g>
						<g>
							<g>
								<defs>
									<path id="SVGID_19_" d="M303.9,253.4c-1.2,0-3.1,0.5-4.5,0.7l0,0c-0.4,0-0.8,0.1-1,0.2l0,0c1-0.2,1.1,0,3.9-0.3l0,0
										c0,0,0.4,0,0.5,0l0,0c0.7,0,1.3,0,1.8,0.3l0,0c0.7,0.4,1.3,0.5,1.9,0.6l0,0c0.5,0,0.9,0,1.3,0l0,0c0.3,0,0.6,0,0.8,0l0,0
										c-1.1-0.3-3.1-1-4-1.3l0,0c-0.2-0.1-0.4-0.1-0.6-0.1l0,0H303.9L303.9,253.4z"/>
								</defs>
								<clipPath id="SVGID_20_">
									<use xlink:href="#SVGID_19_"  style="overflow:visible;"/>
								</clipPath>
								<g id="g812-9_6_" class="st28">
									<g id="g818-2_6_">
										<g id="g854_6_">
											<g id="g856_6_">
												
													<linearGradient id="path864_1_" gradientUnits="userSpaceOnUse" x1="-2042.2784" y1="-802.199" x2="-2042.0682" y2="-802.199" gradientTransform="matrix(25.9563 0 0 25.9563 53308.4453 21076.2422)">
													<stop  offset="0" style="stop-color:#D2D2D6"/>
													<stop  offset="1" style="stop-color:#F7F6F5"/>
												</linearGradient>
												<path id="path864_6_" class="st29" d="M303.9,253.4c-1.2,0-3.1,0.5-4.5,0.7l0,0c-0.4,0-0.8,0.1-1,0.2l0,0
													c1-0.2,1.1,0,3.9-0.3l0,0c0,0,0.4,0,0.5,0l0,0c0.7,0,1.3,0,1.8,0.3l0,0c0.7,0.4,1.3,0.5,1.9,0.6l0,0c0.5,0,0.9,0,1.3,0
													l0,0c0.3,0,0.6,0,0.8,0l0,0c-1.1-0.3-3.1-1-4-1.3l0,0c-0.2-0.1-0.4-0.1-0.6-0.1l0,0H303.9L303.9,253.4z"/>
											</g>
										</g>
									</g>
								</g>
							</g>
						</g>
					</g>
				</g>
				<g>
					<g>
						<g>
							<g>
								<defs>
									<path id="SVGID_21_" d="M296.1,258.8c-0.5,2.1-0.8,5.1-0.3,8.2l0,0c0.2,1.3,1.2,4.3,1.4,5.7l0,0
										c-0.6-4.5-2.6-13.8,4.3-17.1l-0.2-0.2h-0.3C299.5,255.8,296.5,259,296.1,258.8"/>
								</defs>
								<clipPath id="SVGID_22_">
									<use xlink:href="#SVGID_21_"  style="overflow:visible;"/>
								</clipPath>
								<g id="g1068_6_" class="st30">
									<g id="g1074-5_6_">
										<g id="g1110_6_">
											<g id="g1112_6_">
												
													<linearGradient id="path1120_1_" gradientUnits="userSpaceOnUse" x1="-2165.4514" y1="-723.4095" x2="-2165.2341" y2="-723.4095" gradientTransform="matrix(-0.9521 -17.9949 17.9949 -0.9521 11254.8379 -39388.5352)">
													<stop  offset="0" style="stop-color:#C4C4C8"/>
													<stop  offset="1" style="stop-color:#F7F6F5"/>
												</linearGradient>
												<path id="path1120_6_" class="st31" d="M296.1,258.8c-0.5,2.1-0.8,5.1-0.3,8.2l0,0c0.2,1.3,1.2,4.3,1.4,5.7l0,0
													c-0.6-4.5-2.7-13.7,4.2-17h-0.3l-0.3,0.1C299.2,256.2,296.5,259,296.1,258.8"/>
											</g>
										</g>
									</g>
								</g>
							</g>
						</g>
					</g>
				</g>
				<g id="g1306_6_">
					<g id="g1312_6_">
						<g id="g1314_6_">
							
								<linearGradient id="path1324_1_" gradientUnits="userSpaceOnUse" x1="-2138.4272" y1="-947.943" x2="-2138.217" y2="-947.943" gradientTransform="matrix(-9.1503 15.7928 -15.7928 -9.1503 -34240.1602 25356.4453)">
								<stop  offset="0" style="stop-color:#842D3D"/>
								<stop  offset="0.5347" style="stop-color:#AA2C50"/>
								<stop  offset="1" style="stop-color:#842D3D"/>
							</linearGradient>
							<path id="path1324_6_" class="st32" d="M294.5,261.5c0,0.9,0.7,1.6,1.6,1.6l0,0c0.9,0,1.6-0.7,1.6-1.6l0,0
								c0-0.9-0.7-1.6-1.6-1.6l0,0C295.2,259.9,294.5,260.6,294.5,261.5 M296.3,260.7c-0.2-0.1-0.3-0.2-0.3-0.4l0,0c0,0,0,0,0,0l0,0
								c0.3,0,0.5,0.1,0.7,0.2l0,0c-0.1,0.1-0.2,0.2-0.3,0.2l0,0C296.4,260.8,296.4,260.8,296.3,260.7 M295,261.1
								c0.1-0.3,0.3-0.5,0.5-0.6l0,0c0,0.1,0.1,0.1,0.1,0.2l0,0c0,0.2-0.2,0.4-0.4,0.4l0,0C295.1,261.1,295.1,261.1,295,261.1
								 M295.8,261.9l-0.2-0.4c0,0,0-0.1,0-0.1l0,0l0.3-0.3c0,0,0.1,0,0.1,0l0,0l0.4,0.2c0,0,0.1,0.1,0.1,0.1l0,0l-0.1,0.4
								c0,0,0,0.1-0.1,0.1l0,0l-0.4,0.1h0l0,0C295.9,262,295.9,261.9,295.8,261.9 M296.9,261.6c0-0.2,0.1-0.4,0.3-0.4l0,0
								c0,0.1,0,0.2,0,0.3l0,0c0,0.2,0,0.3-0.1,0.5l0,0C297,261.9,296.9,261.8,296.9,261.6 M295,261.8c0,0,0.1,0,0.1,0l0,0
								c0.2,0,0.4,0.2,0.4,0.4l0,0c0,0.1,0,0.2-0.1,0.2l0,0C295.2,262.3,295,262,295,261.8 M296,262.7c0-0.2,0.2-0.4,0.4-0.4l0,0
								c0.1,0,0.3,0.1,0.3,0.2l0,0c-0.2,0.1-0.4,0.2-0.6,0.2l0,0C296.1,262.7,296,262.7,296,262.7"/>
						</g>
					</g>
				</g>
				<g id="g1328_6_">
					<g id="g1334_6_">
						<g id="g1336_6_">
							
								<linearGradient id="path1346_1_" gradientUnits="userSpaceOnUse" x1="-2138.4248" y1="-948.0901" x2="-2138.2146" y2="-948.0901" gradientTransform="matrix(-9.151 15.7939 -15.7939 -9.151 -34245.6992 25356.3398)">
								<stop  offset="0" style="stop-color:#842D3D"/>
								<stop  offset="0.5347" style="stop-color:#AA2C50"/>
								<stop  offset="1" style="stop-color:#842D3D"/>
							</linearGradient>
							<path id="path1346_6_" class="st33" d="M296.3,258.6l0.4,0.6l0.6-0.4l-0.4-0.6L296.3,258.6z"/>
						</g>
					</g>
				</g>
				<g id="g1350-7_6_">
					<g id="g1356-8_6_">
						<g id="g1358-2_6_">
							
								<linearGradient id="path1368_1_" gradientUnits="userSpaceOnUse" x1="-2138.4255" y1="-947.681" x2="-2138.2153" y2="-947.681" gradientTransform="matrix(-9.1501 15.7924 -15.7924 -9.1501 -34234.1133 25358.7754)">
								<stop  offset="0" style="stop-color:#842D3D"/>
								<stop  offset="0.5347" style="stop-color:#AA2C50"/>
								<stop  offset="1" style="stop-color:#842D3D"/>
							</linearGradient>
							<path id="path1368_6_" class="st34" d="M295.4,264.4l0.5,0.5l0.5-0.5l-0.5-0.5L295.4,264.4z"/>
						</g>
					</g>
				</g>
			</g>
			<g id="g1296-0_6_" transform="translate(64.6391,742.2646)">
				<path id="path1298_6_" class="st35" d="M235.5-461c-0.1-0.3-0.2-0.5-0.4-0.8c-0.8,1.8-2.4,5.4-2.9,8.8c0,0.1-0.2,0.9-0.2,1.6
					c0,0.1,0,0.2,0,0.3c0.5,2,1.2,2.3,1.5,2.4c-0.2-0.2-0.3-0.5-0.4-0.8C232.7-451,232.8-454.1,235.5-461"/>
			</g>
			<g id="g1372_6_">
				<g id="g1378_6_">
					<g id="g1380_6_">
						
							<linearGradient id="path1390_1_" gradientUnits="userSpaceOnUse" x1="-2116.5452" y1="-808.9053" x2="-2116.335" y2="-808.9053" gradientTransform="matrix(34.5275 -82.0027 82.0027 34.5275 139710.3594 -145323.6406)">
							<stop  offset="0" style="stop-color:#842D3D"/>
							<stop  offset="0.5347" style="stop-color:#AA2C50"/>
							<stop  offset="1" style="stop-color:#842D3D"/>
						</linearGradient>
						<path id="path1390_6_" class="st36" d="M306.2,291.6c-0.1,0.1-0.1,0.2-0.1,0.4l0,0c0,0.2,0,0.3,0,0.5l0,0
							c-0.1-0.1-0.2-0.1-0.2,0l0,0c0,0.1,0,0.1,0,0.2l0,0c0,0,0,0.1,0,0.2l0,0c-0.1,0.1-0.2,0.2-0.3,0.4l0,0c0,0,0,0.1,0,0.1l0,0
							c0-0.1-0.1-0.3-0.2-0.4l0,0c0-0.1-0.1-0.2-0.2-0.3l0,0c0,0,0,0-0.1,0l0,0c0,0,0,0.1,0,0.1l0,0c0,0,0,0,0,0.1l0,0
							c0,0-0.1-0.1-0.1-0.1l0,0c0,0-0.1,0-0.1,0l0,0c-0.1,0-0.1,0-0.1,0.1l0,0c0,0,0,0.1,0,0.1l0,0c-0.2-0.1-0.2,0.1-0.2,0.1l0,0
							c0,0,0.1,0,0.1,0.1l0,0c0,0,0,0.1,0,0.2l0,0c0,0.1,0,0.3,0.1,0.4l0,0c0.1,0.1,0.2,0,0.3,0l0,0c0.1-0.1,0.1-0.4,0.1-0.5l0,0
							c0,0-0.1,0-0.1,0l0,0c0,0,0,0.1,0,0.1l0,0c0,0,0,0.1-0.1,0.2l0,0c0,0-0.1,0-0.1,0l0,0c-0.1-0.1-0.1-0.2,0-0.3l0,0
							c0,0,0.1-0.1,0.1-0.1l0,0c0.1-0.1,0.2-0.1,0.3,0l0,0c0.1,0,0.1,0.1,0.1,0.3l0,0c0,0.2-0.1,0.6-0.1,0.8l0,0
							c0,0.2,0.2,0.3,0.3,0.3l0,0c0.1,0,0.3,0,0.3,0l0,0c0.2,0.1,0.4,0.1,0.5-0.1l0,0c0.1-0.2,0.2-0.6,0.3-0.7l0,0
							c0.1-0.1,0.2-0.2,0.2-0.2l0,0c0.1,0,0.2,0,0.2,0.2l0,0c0,0,0,0.1,0,0.1l0,0c0,0.1-0.1,0.2-0.2,0.3l0,0c0,0-0.1,0-0.1-0.1l0,0
							c0,0,0-0.1,0-0.2l0,0c0,0,0.1,0,0.1-0.1l0,0c0-0.1-0.1-0.1-0.1,0l0,0c-0.1,0-0.2,0.3-0.1,0.4l0,0c0,0.1,0.1,0.2,0.2,0.2l0,0
							c0.1,0,0.2-0.2,0.2-0.3l0,0c0-0.1,0-0.1,0-0.2l0,0c0,0,0.1,0,0.1-0.1l0,0c0,0,0,0,0,0l0,0c0-0.1-0.1-0.1-0.2-0.2l0,0
							c0,0,0-0.1,0-0.1l0,0c0-0.1,0-0.1,0-0.1l0,0c0,0-0.1,0-0.1,0l0,0c0,0-0.1,0-0.1,0l0,0c0,0,0,0,0-0.1l0,0c0,0,0-0.1,0-0.1l0,0
							c0,0,0,0,0,0l0,0c0,0,0,0,0,0l0,0c-0.1,0-0.1,0.1-0.2,0.1l0,0c-0.1,0-0.2,0.2-0.3,0.3l0,0c0,0,0-0.1,0-0.1l0,0
							c0.1-0.2,0-0.2,0-0.3l0,0l-0.1-0.1c0,0,0,0,0-0.1l0,0c0-0.1,0.1-0.2,0.1-0.3l0,0c0-0.1-0.1-0.1-0.2-0.1l0,0
							c0-0.1,0.1-0.3,0.1-0.5l0,0C306.2,291.7,306.2,291.6,306.2,291.6L306.2,291.6c-0.1,0-0.1,0-0.1,0l0,0
							C306.3,291.6,306.3,291.6,306.2,291.6 M303.3,293.5c0-0.1,0-0.2-0.1-0.3l0,0c-0.1,0-0.2,0.1-0.2,0.2l0,0
							c0,0.1-0.1,0.2-0.1,0.3l0,0c0,0-0.1-0.1-0.2-0.1l0,0c-0.2,0.2-0.2,0.4,0,0.6l0,0c0.1,0.2,0.2,0.4,0.4,0.5l0,0
							c0.2,0.2,0.3,0.4,0.3,0.6l0,0c0,0.2-0.1,0.4-0.3,0.6l0,0c-0.2,0.1-0.3,0.2-0.6,0.2l0,0c0,0,0,0.1,0,0.1l0,0c0,0.1,0.2,0,0.3,0
							l0,0c0.6-0.2,1-0.6,0.8-1.1l0,0c-0.1-0.2-0.3-0.5-0.4-0.7l0,0c-0.1-0.2-0.2-0.3-0.1-0.5l0,0c0-0.2,0.2-0.4,0.5-0.4l0,0
							c0.2,0,0.3,0.1,0.3,0.3l0,0c0,0.1-0.1,0.2-0.2,0.3l0,0c-0.1,0-0.1,0-0.2,0l0,0c0,0,0-0.1,0-0.2l0,0c0,0,0,0,0,0l0,0
							c-0.1,0-0.2,0.1-0.2,0.2l0,0c0,0.2,0.4,0.3,0.6,0.2l0,0c0.2-0.1,0.3-0.4,0.2-0.6l0,0c-0.1-0.2-0.2-0.3-0.3-0.4l0,0
							c0,0,0,0,0,0l0,0c0-0.1,0.1-0.2,0.1-0.3l0,0c0,0,0,0,0,0l0,0C303.5,293.2,303.4,293.3,303.3,293.5 M304.7,294.2
							c-0.1,0-0.3,0.2-0.3,0.3l0,0c0.1,0,0.1,0,0.2,0l0,0c0.1,0,0.2,0,0.2,0.1l0,0c0,0.1,0,0.2-0.1,0.3l0,0
							c-0.1,0.1-0.3,0.2-0.4,0.3l0,0c-0.2,0.1-0.2,0.3-0.2,0.5l0,0c0,0.2,0.2,0.4,0.2,0.4l0,0c-0.3,0.4-0.7,0.7-1,1l0,0
							c0.1,0,0.2,0.1,0.3,0.1l0,0c0.3-0.3,0.6-0.6,0.9-0.9l0,0c0.3,0.1,0.6,0.1,0.8,0l0,0c0.2-0.1,0.2-0.3,0.3-0.4l0,0
							c0-0.1,0.1-0.2,0.1-0.4l0,0c0.1-0.2,0.2-0.3,0.3-0.4l0,0c0.1,0,0.2,0,0.2,0.2l0,0c0,0,0,0,0,0.1l0,0c0.1-0.1,0.1-0.2,0.1-0.3
							l0,0c0-0.2,0-0.3-0.1-0.4l0,0c-0.1-0.1-0.2-0.1-0.4,0l0,0c-0.1,0-0.1,0.1-0.2,0.2l0,0c-0.1,0.1-0.1,0.2-0.2,0.3l0,0
							c-0.2,0.2-0.3,0.4-0.4,0.5l0,0c0.1-0.2,0.2-0.4,0.3-0.5l0,0c0.1-0.2,0.1-0.3,0.2-0.5l0,0c0,0,0,0,0-0.1l0,0c0,0,0,0-0.1,0l0,0
							c-0.2,0.3-0.5,0.5-0.7,0.7l0,0c0,0,0,0-0.1,0.1l0,0c0-0.1,0.1-0.3,0.2-0.4l0,0c0,0,0.1-0.1,0.1-0.1l0,0
							c0.1-0.1,0.2-0.3,0.2-0.4l0,0c0.1-0.2,0-0.3-0.1-0.4l0,0c-0.1,0-0.1-0.1-0.2-0.1l0,0C304.9,294.2,304.8,294.2,304.7,294.2
							 M302.3,294.7c-0.1,0-0.3,0-0.3,0l0,0c0.6,0.3,0.8,0.7,0.9,1.2l0,0c0.1-0.1,0.3-0.4,0.2-0.6l0,0c0-0.3-0.2-0.5-0.4-0.7l0,0
							c0,0,0,0.1,0,0.1l0,0c-0.1-0.1-0.2-0.2-0.4-0.2l0,0C302.2,294.5,302.2,294.6,302.3,294.7 M307.6,295.4
							C307.6,295.4,307.5,295.4,307.6,295.4L307.6,295.4c-0.2-0.1-0.6-0.2-0.8,0.1l0,0c-0.2,0.2-0.3,0.6-0.1,0.8l0,0
							c0.1,0,0.1,0.1,0.2,0l0,0c0.1,0,0.2-0.1,0.2-0.2l0,0c0,0,0,0,0-0.1l0,0c0,0,0,0,0,0l0,0c-0.1,0.1-0.1,0.1-0.2,0.1l0,0
							c0,0-0.1-0.2,0-0.3l0,0c0.1-0.2,0.4-0.3,0.5-0.2l0,0c0.1,0.1,0.1,0.2,0,0.4l0,0c-0.1,0.2-0.2,0.4-0.4,0.5l0,0
							c-0.2,0.1-0.3,0.1-0.5,0.1l0,0c-0.1,0-0.2,0-0.3,0l0,0c-0.1,0-0.3-0.1-0.4,0l0,0c-0.4,0.1-0.9,0.5-1.2,0.9l0,0
							c0.1,0,0.1,0,0.2,0l0,0c0.1-0.1,0.2-0.2,0.3-0.3l0,0c0.3-0.2,0.6-0.4,0.9-0.4l0,0c0.2,0,0.4,0.1,0.7,0.1l0,0
							c0.1,0,0.3,0,0.4,0l0,0c0.2,0,0.4-0.2,0.5-0.4l0,0c0,0-0.1,0-0.2,0l0,0c0.2-0.2,0.4-0.4,0.5-0.8l0,0c-0.1,0.1-0.2,0.1-0.3,0.2
							l0,0c0.1-0.1,0.1-0.2,0.2-0.4l0,0c0-0.1,0-0.2,0-0.3l0,0C307.7,295.2,307.6,295.3,307.6,295.4 M303.1,296.3
							c-0.1,0.1-0.1,0.3,0,0.4l0,0c0,0,0.1,0.1,0.1,0.1l0,0c0.1-0.1,0.2-0.2,0.3-0.3l0,0c0.2-0.2,0.3-0.4,0.3-0.6l0,0
							c0-0.1,0-0.1,0-0.2l0,0C303.5,295.9,303.3,296.1,303.1,296.3 M302,296.3c-0.1,0-0.2,0-0.3,0l0,0c0,0,0.1,0.1,0.2,0.2l0,0
							c0,0-0.1,0.1-0.2,0.1l0,0c0.5,0,0.9,0.2,1.3,0.5l0,0C303,296.7,302.5,296.3,302,296.3L302,296.3
							C302,296.3,302,296.3,302,296.3 M304.1,297c-0.1,0.1-0.2,0.2-0.3,0.3l0,0c0.2,0,0.4,0,0.6,0.1l0,0c0,0,0,0,0.1,0l0,0
							c0.1-0.1,0.2-0.2,0.3-0.3l0,0c0.1-0.1,0.1-0.2,0.2-0.2l0,0c0.1-0.1,0.1-0.1,0.2-0.2l0,0C304.7,296.6,304.4,296.7,304.1,297
							 M306.1,297c-0.3,0-0.7,0.2-1,0.4l0,0c0.6,0,1.1-0.1,1.5-0.2l0,0C306.5,297,306.4,297,306.1,297L306.1,297
							C306.2,297,306.1,297,306.1,297"/>
					</g>
				</g>
			</g>
			<path id="path1436_6_" class="st2" d="M297.9,278.8l0.2-0.1l-0.6-1.1l-0.2,0.1l0.2,0.4l-1.2,0.7l0.2,0.3l1.2-0.7L297.9,278.8z
				 M298.9,280.1l-1.2,0.2l0.7-0.9l-0.2-0.4l-1.4,0.8l0.2,0.3l1.1-0.6l0,0l-0.8,1l0.1,0.2l1.3-0.2l0,0l-1.1,0.6l0.2,0.3l1.4-0.8
				L298.9,280.1z"/>
		</g>
		<g id="g1186_11_">
			<g id="g1192_11_">
				<g id="g1232-4_11_">
					<g id="g1234-8_11_">
						
							<radialGradient id="path1244_2_" cx="312.072" cy="272.0871" r="7.6983" fx="307.9327" fy="271.925" gradientTransform="matrix(-0.8459 -0.5334 2.4201 -3.8379 -82.44 1482.7878)" gradientUnits="userSpaceOnUse">
							<stop  offset="0" style="stop-color:#8C8D90"/>
							<stop  offset="0.2127" style="stop-color:#8C8D90"/>
							<stop  offset="0.3631" style="stop-color:#ABABB0"/>
							<stop  offset="0.4245" style="stop-color:#8C8D90"/>
							<stop  offset="0.6257" style="stop-color:#8C8D90"/>
							<stop  offset="0.6816" style="stop-color:#ABABB0"/>
							<stop  offset="0.7542" style="stop-color:#8C8D90"/>
							<stop  offset="0.8324" style="stop-color:#6E7071"/>
						</radialGradient>
						<path id="path1244_11_" class="st37" d="M299.7,294.8c-0.3,0-0.7-0.2-1-0.4l0,0c-0.4-0.3-0.8-0.8-1-1.3l0,0
							c-0.5-1.6-0.4-4.7,2.4-11.6l0,0c0.3,0.6,0.6,1.2,0.7,1.5l0,0c1.6,3.2,2,6.2,2,8l0,0c-0.2,2.2-1.2,3.6-2.5,3.8l0,0
							c-0.1,0-0.3,0-0.4,0l0,0C299.8,294.8,299.8,294.8,299.7,294.8"/>
					</g>
				</g>
			</g>
		</g>
	</g>
</g>
<rect x="41.5" y="26" class="st38" width="80" height="27.1"/>
<rect x="41.5" y="105.3" class="st38" width="80" height="27.1"/>
<rect x="121.5" y="65.7" class="st38" width="80" height="27.1"/>
<rect x="201.5" y="142.1" class="st38" width="80" height="27.1"/>
<rect x="117.3" y="26" class="st38" width="4.3" height="106.5"/>
<rect x="41.5" y="258.1" class="st38" width="80" height="27.1"/>
<rect x="41.5" y="178.8" class="st38" width="80" height="27.1"/>
<rect x="121.5" y="218.5" class="st38" width="80" height="27.1"/>
<rect x="117.3" y="178.8" class="st38" width="4.3" height="106.5"/>
<rect x="300.9" y="290.4" transform="matrix(6.123234e-17 -1 1 6.123234e-17 -8.8378 614.8919)" class="st38" width="4.3" height="43"/>
<rect x="197.3" y="65.7" class="st38" width="4.3" height="179.9"/>
<rect x="41.5" y="570.6" class="st38" width="80" height="27.1"/>
<rect x="41.5" y="491.3" class="st38" width="80" height="27.1"/>
<rect x="121.5" y="530.9" class="st38" width="80" height="27.1"/>
<rect x="201.5" y="454.5" class="st38" width="80" height="27.1"/>
<rect x="117.3" y="491.3" class="st38" width="4.3" height="106.5"/>
<rect x="41.5" y="338.5" class="st38" width="80" height="27.1"/>
<rect x="41.5" y="417.8" class="st38" width="80" height="27.1"/>
<rect x="121.5" y="378.1" class="st38" width="80" height="27.1"/>
<rect x="117.3" y="338.5" class="st38" width="4.3" height="106.5"/>
<rect x="197.3" y="378.1" class="st38" width="4.3" height="179.9"/>
<rect x="277.3" y="142.1" class="st38" width="4.3" height="339.6"/>
<rect x="484.5" y="26" transform="matrix(-1 -4.492330e-11 4.492330e-11 -1 1049.0759 79.1686)" class="st38" width="80" height="27.1"/>
<rect x="484.5" y="105.3" transform="matrix(-1 -4.492330e-11 4.492330e-11 -1 1049.0759 237.7989)" class="st38" width="80" height="27.1"/>
<rect x="404.5" y="65.7" transform="matrix(-1 -4.487756e-11 4.487756e-11 -1 889.0547 158.4838)" class="st38" width="80" height="27.1"/>
<rect x="324.5" y="142.1" transform="matrix(-1 -4.487756e-11 4.487756e-11 -1 729.062 311.283)" class="st38" width="80" height="27.1"/>
<rect x="484.5" y="26" transform="matrix(-1 -4.442281e-11 4.442281e-11 -1 973.3239 158.4838)" class="st38" width="4.3" height="106.5"/>
<rect x="484.5" y="258.1" transform="matrix(-1 -4.492330e-11 4.492330e-11 -1 1049.0759 543.3974)" class="st38" width="80" height="27.1"/>
<rect x="484.5" y="178.8" transform="matrix(-1 -4.492330e-11 4.492330e-11 -1 1049.0759 384.7671)" class="st38" width="80" height="27.1"/>
<rect x="404.5" y="218.5" transform="matrix(-1 -4.487756e-11 4.487756e-11 -1 889.0547 464.0822)" class="st38" width="80" height="27.1"/>
<rect x="484.5" y="178.8" transform="matrix(-1 -4.442281e-11 4.442281e-11 -1 973.3239 464.0822)" class="st38" width="4.3" height="106.5"/>
<rect x="404.5" y="65.7" transform="matrix(-1 -4.527679e-11 4.527679e-11 -1 813.3312 311.283)" class="st38" width="4.3" height="179.9"/>
<rect x="484.5" y="570.6" transform="matrix(-1 -4.492330e-11 4.492330e-11 -1 1049.0759 1168.2909)" class="st38" width="80" height="27.1"/>
<rect x="484.5" y="491.3" transform="matrix(-1 -4.492330e-11 4.492330e-11 -1 1049.0759 1009.6605)" class="st38" width="80" height="27.1"/>
<rect x="404.5" y="530.9" transform="matrix(-1 -4.487756e-11 4.487756e-11 -1 889.0547 1088.9757)" class="st38" width="80" height="27.1"/>
<rect x="324.5" y="454.5" transform="matrix(-1 -4.487756e-11 4.487756e-11 -1 729.062 936.1765)" class="st38" width="80" height="27.1"/>
<rect x="484.5" y="491.3" transform="matrix(-1 -4.442281e-11 4.442281e-11 -1 973.3239 1088.9757)" class="st38" width="4.3" height="106.5"/>
<rect x="484.5" y="338.5" transform="matrix(-1 -4.492330e-11 4.492330e-11 -1 1049.0759 704.0621)" class="st38" width="80" height="27.1"/>
<rect x="484.5" y="417.8" transform="matrix(-1 -4.492330e-11 4.492330e-11 -1 1049.0759 862.6924)" class="st38" width="80" height="27.1"/>
<rect x="404.5" y="378.1" transform="matrix(-1 -4.487756e-11 4.487756e-11 -1 889.0547 783.3772)" class="st38" width="80" height="27.1"/>
<rect x="484.5" y="338.5" transform="matrix(-1 -4.442281e-11 4.442281e-11 -1 973.3239 783.3772)" class="st38" width="4.3" height="106.5"/>
<rect x="404.5" y="378.1" transform="matrix(-1 -4.527679e-11 4.527679e-11 -1 813.3312 936.1765)" class="st38" width="4.3" height="179.9"/>
<rect x="324.5" y="142.1" transform="matrix(-1 -4.527679e-11 4.527679e-11 -1 653.3099 623.7297)" class="st38" width="4.3" height="339.6"/>
</svg>
